<?xml version="1.0" encoding="UTF-8" standalone="no"?>
<!DOCTYPE svg PUBLIC "-//W3C//DTD SVG 1.1//EN"
 "http://www.w3.org/Graphics/SVG/1.1/DTD/svg11.dtd">
<!-- Generated by graphviz version 2.38.0 (20140413.2041)
 -->
<!-- Title: controllers_diagram Pages: 1 -->
<svg width="1065pt" height="1083pt"
 viewBox="0.00 0.00 1064.50 1083.00" xmlns="http://www.w3.org/2000/svg" xmlns:xlink="http://www.w3.org/1999/xlink">
<g id="graph0" class="graph" transform="scale(1 1) rotate(0) translate(444.5 659)">
<title>controllers_diagram</title>
<polygon fill="none" stroke="none" points="-444.5,424 -444.5,-659 620,-659 620,424 -444.5,424"/>
<!-- _diagram_info -->
<g id="node1" class="node"><title>_diagram_info</title>
<text text-anchor="start" x="302.5" y="356.4" font-family="Times New Roman,serif" font-size="13.00">Controllers diagram</text>
<text text-anchor="start" x="302.5" y="370.4" font-family="Times New Roman,serif" font-size="13.00">Date: Oct 01 2018 &#45; 13:45</text>
<text text-anchor="start" x="302.5" y="384.4" font-family="Times New Roman,serif" font-size="13.00">Migration version: 20171122184018</text>
<text text-anchor="start" x="302.5" y="398.4" font-family="Times New Roman,serif" font-size="13.00">Generated by RailRoady 1.5.3</text>
<text text-anchor="start" x="302.5" y="412.4" font-family="Times New Roman,serif" font-size="13.00">http://railroady.prestonlee.com</text>
</g>
<!-- AlumnosController -->
<g id="node2" class="node"><title>AlumnosController</title>
<path fill="none" stroke="black" d="M138.5,125C138.5,125 247.5,125 247.5,125 253.5,125 259.5,119 259.5,113 259.5,113 259.5,-241 259.5,-241 259.5,-247 253.5,-253 247.5,-253 247.5,-253 138.5,-253 138.5,-253 132.5,-253 126.5,-247 126.5,-241 126.5,-241 126.5,113 126.5,113 126.5,119 132.5,125 138.5,125"/>
<text text-anchor="middle" x="193" y="-237.8" font-family="Times New Roman,serif" font-size="14.00">AlumnosController</text>
<polyline fill="none" stroke="black" points="126.5,-230 259.5,-230 "/>
<text text-anchor="start" x="134.5" y="-214.8" font-family="Times New Roman,serif" font-size="14.00">alumnos_pendientes</text>
<text text-anchor="start" x="134.5" y="-199.8" font-family="Times New Roman,serif" font-size="14.00">alumnos_sin_asignar</text>
<text text-anchor="start" x="134.5" y="-184.8" font-family="Times New Roman,serif" font-size="14.00">crear3</text>
<text text-anchor="start" x="134.5" y="-169.8" font-family="Times New Roman,serif" font-size="14.00">create</text>
<text text-anchor="start" x="134.5" y="-154.8" font-family="Times New Roman,serif" font-size="14.00">destroy</text>
<text text-anchor="start" x="134.5" y="-139.8" font-family="Times New Roman,serif" font-size="14.00">edit</text>
<text text-anchor="start" x="134.5" y="-124.8" font-family="Times New Roman,serif" font-size="14.00">editar2</text>
<text text-anchor="start" x="134.5" y="-109.8" font-family="Times New Roman,serif" font-size="14.00">escoger_opcion</text>
<text text-anchor="start" x="134.5" y="-94.8" font-family="Times New Roman,serif" font-size="14.00">estadistica_alum</text>
<text text-anchor="start" x="134.5" y="-79.8" font-family="Times New Roman,serif" font-size="14.00">index</text>
<text text-anchor="start" x="134.5" y="-64.8" font-family="Times New Roman,serif" font-size="14.00">listar_alumnos</text>
<text text-anchor="start" x="134.5" y="-49.8" font-family="Times New Roman,serif" font-size="14.00">new</text>
<text text-anchor="start" x="134.5" y="-34.8" font-family="Times New Roman,serif" font-size="14.00">nuevo3</text>
<text text-anchor="start" x="134.5" y="-19.8" font-family="Times New Roman,serif" font-size="14.00">show</text>
<text text-anchor="start" x="134.5" y="-4.8" font-family="Times New Roman,serif" font-size="14.00">update</text>
<text text-anchor="start" x="134.5" y="10.2" font-family="Times New Roman,serif" font-size="14.00">update2</text>
<polyline fill="none" stroke="black" points="126.5,18 259.5,18 "/>
<polyline fill="none" stroke="black" points="126.5,42 259.5,42 "/>
<text text-anchor="start" x="134.5" y="57.2" font-family="Times New Roman,serif" font-size="14.00">_layout</text>
<text text-anchor="start" x="134.5" y="72.2" font-family="Times New Roman,serif" font-size="14.00">alumno_params</text>
<text text-anchor="start" x="134.5" y="87.2" font-family="Times New Roman,serif" font-size="14.00">permisos_admin</text>
<text text-anchor="start" x="134.5" y="102.2" font-family="Times New Roman,serif" font-size="14.00">permisos_guia</text>
<text text-anchor="start" x="134.5" y="117.2" font-family="Times New Roman,serif" font-size="14.00">set_alumno</text>
</g>
<!-- ApplicationController -->
<g id="node3" class="node"><title>ApplicationController</title>
<path fill="none" stroke="black" d="M-407.5,419C-407.5,419 -294.5,419 -294.5,419 -288.5,419 -282.5,413 -282.5,407 -282.5,407 -282.5,337 -282.5,337 -282.5,331 -288.5,325 -294.5,325 -294.5,325 -407.5,325 -407.5,325 -413.5,325 -419.5,331 -419.5,337 -419.5,337 -419.5,407 -419.5,407 -419.5,413 -413.5,419 -407.5,419"/>
<text text-anchor="middle" x="-351" y="340.2" font-family="Times New Roman,serif" font-size="14.00">ApplicationController</text>
<polyline fill="none" stroke="black" points="-419.5,348 -282.5,348 "/>
<polyline fill="none" stroke="black" points="-419.5,372 -282.5,372 "/>
<polyline fill="none" stroke="black" points="-419.5,396 -282.5,396 "/>
<text text-anchor="start" x="-411.5" y="411.2" font-family="Times New Roman,serif" font-size="14.00">_layout</text>
</g>
<!-- AreasController -->
<g id="node4" class="node"><title>AreasController</title>
<path fill="none" stroke="black" d="M159.5,-294.5C159.5,-294.5 240.5,-294.5 240.5,-294.5 246.5,-294.5 252.5,-300.5 252.5,-306.5 252.5,-306.5 252.5,-525.5 252.5,-525.5 252.5,-531.5 246.5,-537.5 240.5,-537.5 240.5,-537.5 159.5,-537.5 159.5,-537.5 153.5,-537.5 147.5,-531.5 147.5,-525.5 147.5,-525.5 147.5,-306.5 147.5,-306.5 147.5,-300.5 153.5,-294.5 159.5,-294.5"/>
<text text-anchor="middle" x="200" y="-522.3" font-family="Times New Roman,serif" font-size="14.00">AreasController</text>
<polyline fill="none" stroke="black" points="147.5,-514.5 252.5,-514.5 "/>
<text text-anchor="start" x="155.5" y="-499.3" font-family="Times New Roman,serif" font-size="14.00">crear</text>
<text text-anchor="start" x="155.5" y="-484.3" font-family="Times New Roman,serif" font-size="14.00">crear2</text>
<text text-anchor="start" x="155.5" y="-469.3" font-family="Times New Roman,serif" font-size="14.00">editar</text>
<text text-anchor="start" x="155.5" y="-454.3" font-family="Times New Roman,serif" font-size="14.00">eliminar</text>
<text text-anchor="start" x="155.5" y="-439.3" font-family="Times New Roman,serif" font-size="14.00">index</text>
<text text-anchor="start" x="155.5" y="-424.3" font-family="Times New Roman,serif" font-size="14.00">mostrar</text>
<text text-anchor="start" x="155.5" y="-409.3" font-family="Times New Roman,serif" font-size="14.00">nuevo</text>
<text text-anchor="start" x="155.5" y="-394.3" font-family="Times New Roman,serif" font-size="14.00">nuevo2</text>
<text text-anchor="start" x="155.5" y="-379.3" font-family="Times New Roman,serif" font-size="14.00">update</text>
<polyline fill="none" stroke="black" points="147.5,-371.5 252.5,-371.5 "/>
<polyline fill="none" stroke="black" points="147.5,-347.5 252.5,-347.5 "/>
<text text-anchor="start" x="155.5" y="-332.3" font-family="Times New Roman,serif" font-size="14.00">_layout</text>
<text text-anchor="start" x="155.5" y="-317.3" font-family="Times New Roman,serif" font-size="14.00">area_params</text>
<text text-anchor="start" x="155.5" y="-302.3" font-family="Times New Roman,serif" font-size="14.00">set_area</text>
</g>
<!-- CodigosController -->
<g id="node5" class="node"><title>CodigosController</title>
<path fill="none" stroke="black" d="M-8.5,-336.5C-8.5,-336.5 88.5,-336.5 88.5,-336.5 94.5,-336.5 100.5,-342.5 100.5,-348.5 100.5,-348.5 100.5,-537.5 100.5,-537.5 100.5,-543.5 94.5,-549.5 88.5,-549.5 88.5,-549.5 -8.5,-549.5 -8.5,-549.5 -14.5,-549.5 -20.5,-543.5 -20.5,-537.5 -20.5,-537.5 -20.5,-348.5 -20.5,-348.5 -20.5,-342.5 -14.5,-336.5 -8.5,-336.5"/>
<text text-anchor="middle" x="40" y="-534.3" font-family="Times New Roman,serif" font-size="14.00">CodigosController</text>
<polyline fill="none" stroke="black" points="-20.5,-526.5 100.5,-526.5 "/>
<text text-anchor="start" x="-12.5" y="-511.3" font-family="Times New Roman,serif" font-size="14.00">create</text>
<text text-anchor="start" x="-12.5" y="-496.3" font-family="Times New Roman,serif" font-size="14.00">destroy</text>
<text text-anchor="start" x="-12.5" y="-481.3" font-family="Times New Roman,serif" font-size="14.00">edit</text>
<text text-anchor="start" x="-12.5" y="-466.3" font-family="Times New Roman,serif" font-size="14.00">index</text>
<text text-anchor="start" x="-12.5" y="-451.3" font-family="Times New Roman,serif" font-size="14.00">new</text>
<text text-anchor="start" x="-12.5" y="-436.3" font-family="Times New Roman,serif" font-size="14.00">show</text>
<text text-anchor="start" x="-12.5" y="-421.3" font-family="Times New Roman,serif" font-size="14.00">update</text>
<polyline fill="none" stroke="black" points="-20.5,-413.5 100.5,-413.5 "/>
<polyline fill="none" stroke="black" points="-20.5,-389.5 100.5,-389.5 "/>
<text text-anchor="start" x="-12.5" y="-374.3" font-family="Times New Roman,serif" font-size="14.00">_layout</text>
<text text-anchor="start" x="-12.5" y="-359.3" font-family="Times New Roman,serif" font-size="14.00">codigo_params</text>
<text text-anchor="start" x="-12.5" y="-344.3" font-family="Times New Roman,serif" font-size="14.00">set_codigo</text>
</g>
<!-- ConveniosController -->
<g id="node6" class="node"><title>ConveniosController</title>
<path fill="none" stroke="black" d="M-281.5,293.5C-281.5,293.5 -172.5,293.5 -172.5,293.5 -166.5,293.5 -160.5,287.5 -160.5,281.5 -160.5,281.5 -160.5,62.5 -160.5,62.5 -160.5,56.5 -166.5,50.5 -172.5,50.5 -172.5,50.5 -281.5,50.5 -281.5,50.5 -287.5,50.5 -293.5,56.5 -293.5,62.5 -293.5,62.5 -293.5,281.5 -293.5,281.5 -293.5,287.5 -287.5,293.5 -281.5,293.5"/>
<text text-anchor="middle" x="-227" y="65.7" font-family="Times New Roman,serif" font-size="14.00">ConveniosController</text>
<polyline fill="none" stroke="black" points="-293.5,73.5 -160.5,73.5 "/>
<text text-anchor="start" x="-285.5" y="88.7" font-family="Times New Roman,serif" font-size="14.00">crear</text>
<text text-anchor="start" x="-285.5" y="103.7" font-family="Times New Roman,serif" font-size="14.00">crear2</text>
<text text-anchor="start" x="-285.5" y="118.7" font-family="Times New Roman,serif" font-size="14.00">editar</text>
<text text-anchor="start" x="-285.5" y="133.7" font-family="Times New Roman,serif" font-size="14.00">eliminar</text>
<text text-anchor="start" x="-285.5" y="148.7" font-family="Times New Roman,serif" font-size="14.00">index</text>
<text text-anchor="start" x="-285.5" y="163.7" font-family="Times New Roman,serif" font-size="14.00">mostrar</text>
<text text-anchor="start" x="-285.5" y="178.7" font-family="Times New Roman,serif" font-size="14.00">nuevo</text>
<text text-anchor="start" x="-285.5" y="193.7" font-family="Times New Roman,serif" font-size="14.00">nuevo2</text>
<text text-anchor="start" x="-285.5" y="208.7" font-family="Times New Roman,serif" font-size="14.00">update</text>
<polyline fill="none" stroke="black" points="-293.5,216.5 -160.5,216.5 "/>
<polyline fill="none" stroke="black" points="-293.5,240.5 -160.5,240.5 "/>
<text text-anchor="start" x="-285.5" y="255.7" font-family="Times New Roman,serif" font-size="14.00">_layout</text>
<text text-anchor="start" x="-285.5" y="270.7" font-family="Times New Roman,serif" font-size="14.00">convenio_params</text>
<text text-anchor="start" x="-285.5" y="285.7" font-family="Times New Roman,serif" font-size="14.00">set_convenio</text>
</g>
<!-- EmpresasController -->
<g id="node7" class="node"><title>EmpresasController</title>
<path fill="none" stroke="black" d="M306,-0.5C306,-0.5 410,-0.5 410,-0.5 416,-0.5 422,-6.5 422,-12.5 422,-12.5 422,-231.5 422,-231.5 422,-237.5 416,-243.5 410,-243.5 410,-243.5 306,-243.5 306,-243.5 300,-243.5 294,-237.5 294,-231.5 294,-231.5 294,-12.5 294,-12.5 294,-6.5 300,-0.5 306,-0.5"/>
<text text-anchor="middle" x="358" y="-228.3" font-family="Times New Roman,serif" font-size="14.00">EmpresasController</text>
<polyline fill="none" stroke="black" points="294,-220.5 422,-220.5 "/>
<text text-anchor="start" x="302" y="-205.3" font-family="Times New Roman,serif" font-size="14.00">crear</text>
<text text-anchor="start" x="302" y="-190.3" font-family="Times New Roman,serif" font-size="14.00">crear2</text>
<text text-anchor="start" x="302" y="-175.3" font-family="Times New Roman,serif" font-size="14.00">editar</text>
<text text-anchor="start" x="302" y="-160.3" font-family="Times New Roman,serif" font-size="14.00">eliminar</text>
<text text-anchor="start" x="302" y="-145.3" font-family="Times New Roman,serif" font-size="14.00">index</text>
<text text-anchor="start" x="302" y="-130.3" font-family="Times New Roman,serif" font-size="14.00">mostrar</text>
<text text-anchor="start" x="302" y="-115.3" font-family="Times New Roman,serif" font-size="14.00">nuevo</text>
<text text-anchor="start" x="302" y="-100.3" font-family="Times New Roman,serif" font-size="14.00">nuevo2</text>
<text text-anchor="start" x="302" y="-85.3" font-family="Times New Roman,serif" font-size="14.00">update</text>
<polyline fill="none" stroke="black" points="294,-77.5 422,-77.5 "/>
<polyline fill="none" stroke="black" points="294,-53.5 422,-53.5 "/>
<text text-anchor="start" x="302" y="-38.3" font-family="Times New Roman,serif" font-size="14.00">_layout</text>
<text text-anchor="start" x="302" y="-23.3" font-family="Times New Roman,serif" font-size="14.00">empresa_params</text>
<text text-anchor="start" x="302" y="-8.3" font-family="Times New Roman,serif" font-size="14.00">set_empresa</text>
</g>
<!-- EvaluacionsController -->
<g id="node8" class="node"><title>EvaluacionsController</title>
<path fill="none" stroke="black" d="M306,-295C306,-295 422,-295 422,-295 428,-295 434,-301 434,-307 434,-307 434,-511 434,-511 434,-517 428,-523 422,-523 422,-523 306,-523 306,-523 300,-523 294,-517 294,-511 294,-511 294,-307 294,-307 294,-301 300,-295 306,-295"/>
<text text-anchor="middle" x="364" y="-507.8" font-family="Times New Roman,serif" font-size="14.00">EvaluacionsController</text>
<polyline fill="none" stroke="black" points="294,-500 434,-500 "/>
<text text-anchor="start" x="302" y="-484.8" font-family="Times New Roman,serif" font-size="14.00">crear</text>
<text text-anchor="start" x="302" y="-469.8" font-family="Times New Roman,serif" font-size="14.00">crear2</text>
<text text-anchor="start" x="302" y="-454.8" font-family="Times New Roman,serif" font-size="14.00">editar</text>
<text text-anchor="start" x="302" y="-439.8" font-family="Times New Roman,serif" font-size="14.00">eliminar</text>
<text text-anchor="start" x="302" y="-424.8" font-family="Times New Roman,serif" font-size="14.00">index</text>
<text text-anchor="start" x="302" y="-409.8" font-family="Times New Roman,serif" font-size="14.00">mostrar</text>
<text text-anchor="start" x="302" y="-394.8" font-family="Times New Roman,serif" font-size="14.00">nuevo</text>
<text text-anchor="start" x="302" y="-379.8" font-family="Times New Roman,serif" font-size="14.00">update</text>
<polyline fill="none" stroke="black" points="294,-372 434,-372 "/>
<polyline fill="none" stroke="black" points="294,-348 434,-348 "/>
<text text-anchor="start" x="302" y="-332.8" font-family="Times New Roman,serif" font-size="14.00">_layout</text>
<text text-anchor="start" x="302" y="-317.8" font-family="Times New Roman,serif" font-size="14.00">evaluacion_params</text>
<text text-anchor="start" x="302" y="-302.8" font-family="Times New Roman,serif" font-size="14.00">set_evaluacion</text>
</g>
<!-- HerramientasController -->
<g id="node9" class="node"><title>HerramientasController</title>
<path fill="none" stroke="black" d="M-282,-0.5C-282,-0.5 -160,-0.5 -160,-0.5 -154,-0.5 -148,-6.5 -148,-12.5 -148,-12.5 -148,-231.5 -148,-231.5 -148,-237.5 -154,-243.5 -160,-243.5 -160,-243.5 -282,-243.5 -282,-243.5 -288,-243.5 -294,-237.5 -294,-231.5 -294,-231.5 -294,-12.5 -294,-12.5 -294,-6.5 -288,-0.5 -282,-0.5"/>
<text text-anchor="middle" x="-221" y="-228.3" font-family="Times New Roman,serif" font-size="14.00">HerramientasController</text>
<polyline fill="none" stroke="black" points="-294,-220.5 -148,-220.5 "/>
<text text-anchor="start" x="-286" y="-205.3" font-family="Times New Roman,serif" font-size="14.00">crear</text>
<text text-anchor="start" x="-286" y="-190.3" font-family="Times New Roman,serif" font-size="14.00">crear2</text>
<text text-anchor="start" x="-286" y="-175.3" font-family="Times New Roman,serif" font-size="14.00">editar</text>
<text text-anchor="start" x="-286" y="-160.3" font-family="Times New Roman,serif" font-size="14.00">eliminar</text>
<text text-anchor="start" x="-286" y="-145.3" font-family="Times New Roman,serif" font-size="14.00">index</text>
<text text-anchor="start" x="-286" y="-130.3" font-family="Times New Roman,serif" font-size="14.00">mostrar</text>
<text text-anchor="start" x="-286" y="-115.3" font-family="Times New Roman,serif" font-size="14.00">nuevo</text>
<text text-anchor="start" x="-286" y="-100.3" font-family="Times New Roman,serif" font-size="14.00">nuevo2</text>
<text text-anchor="start" x="-286" y="-85.3" font-family="Times New Roman,serif" font-size="14.00">update</text>
<polyline fill="none" stroke="black" points="-294,-77.5 -148,-77.5 "/>
<polyline fill="none" stroke="black" points="-294,-53.5 -148,-53.5 "/>
<text text-anchor="start" x="-286" y="-38.3" font-family="Times New Roman,serif" font-size="14.00">_layout</text>
<text text-anchor="start" x="-286" y="-23.3" font-family="Times New Roman,serif" font-size="14.00">herramienta_params</text>
<text text-anchor="start" x="-286" y="-8.3" font-family="Times New Roman,serif" font-size="14.00">set_herramienta</text>
</g>
<!-- PracticasController -->
<g id="node10" class="node"><title>PracticasController</title>
<path fill="none" stroke="black" d="M-93,293C-93,293 73,293 73,293 79,293 85,287 85,281 85,281 85,-283 85,-283 85,-289 79,-295 73,-295 73,-295 -93,-295 -93,-295 -99,-295 -105,-289 -105,-283 -105,-283 -105,281 -105,281 -105,287 -99,293 -93,293"/>
<text text-anchor="middle" x="-10" y="-279.8" font-family="Times New Roman,serif" font-size="14.00">PracticasController</text>
<polyline fill="none" stroke="black" points="-105,-272 85,-272 "/>
<text text-anchor="start" x="-97" y="-256.8" font-family="Times New Roman,serif" font-size="14.00">asignar</text>
<text text-anchor="start" x="-97" y="-241.8" font-family="Times New Roman,serif" font-size="14.00">asignar_llaves_area</text>
<text text-anchor="start" x="-97" y="-226.8" font-family="Times New Roman,serif" font-size="14.00">asignar_llaves_convenio</text>
<text text-anchor="start" x="-97" y="-211.8" font-family="Times New Roman,serif" font-size="14.00">asignar_llaves_empresa</text>
<text text-anchor="start" x="-97" y="-196.8" font-family="Times New Roman,serif" font-size="14.00">asignar_llaves_evaluacion</text>
<text text-anchor="start" x="-97" y="-181.8" font-family="Times New Roman,serif" font-size="14.00">asignar_llaves_herramienta</text>
<text text-anchor="start" x="-97" y="-166.8" font-family="Times New Roman,serif" font-size="14.00">asignar_llaves_profesionalGuia</text>
<text text-anchor="start" x="-97" y="-151.8" font-family="Times New Roman,serif" font-size="14.00">asignar_llaves_seguimiento</text>
<text text-anchor="start" x="-97" y="-136.8" font-family="Times New Roman,serif" font-size="14.00">asignar_practica</text>
<text text-anchor="start" x="-97" y="-121.8" font-family="Times New Roman,serif" font-size="14.00">crear</text>
<text text-anchor="start" x="-97" y="-106.8" font-family="Times New Roman,serif" font-size="14.00">crear2</text>
<text text-anchor="start" x="-97" y="-91.8" font-family="Times New Roman,serif" font-size="14.00">crear3</text>
<text text-anchor="start" x="-97" y="-76.8" font-family="Times New Roman,serif" font-size="14.00">editar</text>
<text text-anchor="start" x="-97" y="-61.8" font-family="Times New Roman,serif" font-size="14.00">eliminar</text>
<text text-anchor="start" x="-97" y="-46.8" font-family="Times New Roman,serif" font-size="14.00">escoger_practica</text>
<text text-anchor="start" x="-97" y="-31.8" font-family="Times New Roman,serif" font-size="14.00">estadistica_area</text>
<text text-anchor="start" x="-97" y="-16.8" font-family="Times New Roman,serif" font-size="14.00">estadistica_empresa</text>
<text text-anchor="start" x="-97" y="-1.8" font-family="Times New Roman,serif" font-size="14.00">estadistica_herramienta</text>
<text text-anchor="start" x="-97" y="13.2" font-family="Times New Roman,serif" font-size="14.00">guardar_asignar</text>
<text text-anchor="start" x="-97" y="28.2" font-family="Times New Roman,serif" font-size="14.00">index</text>
<text text-anchor="start" x="-97" y="43.2" font-family="Times New Roman,serif" font-size="14.00">info_contacto</text>
<text text-anchor="start" x="-97" y="58.2" font-family="Times New Roman,serif" font-size="14.00">mostrar</text>
<text text-anchor="start" x="-97" y="73.2" font-family="Times New Roman,serif" font-size="14.00">mostrar2</text>
<text text-anchor="start" x="-97" y="88.2" font-family="Times New Roman,serif" font-size="14.00">nuevo</text>
<text text-anchor="start" x="-97" y="103.2" font-family="Times New Roman,serif" font-size="14.00">nuevo2</text>
<text text-anchor="start" x="-97" y="118.2" font-family="Times New Roman,serif" font-size="14.00">nuevo3</text>
<text text-anchor="start" x="-97" y="133.2" font-family="Times New Roman,serif" font-size="14.00">planilla</text>
<text text-anchor="start" x="-97" y="148.2" font-family="Times New Roman,serif" font-size="14.00">practicas_actuales</text>
<text text-anchor="start" x="-97" y="163.2" font-family="Times New Roman,serif" font-size="14.00">practicas_disponibles</text>
<text text-anchor="start" x="-97" y="178.2" font-family="Times New Roman,serif" font-size="14.00">pregunta_convenio</text>
<text text-anchor="start" x="-97" y="193.2" font-family="Times New Roman,serif" font-size="14.00">sin_asignar</text>
<text text-anchor="start" x="-97" y="208.2" font-family="Times New Roman,serif" font-size="14.00">update</text>
<polyline fill="none" stroke="black" points="-105,216 85,216 "/>
<polyline fill="none" stroke="black" points="-105,240 85,240 "/>
<text text-anchor="start" x="-97" y="255.2" font-family="Times New Roman,serif" font-size="14.00">_layout</text>
<text text-anchor="start" x="-97" y="270.2" font-family="Times New Roman,serif" font-size="14.00">practica_params</text>
<text text-anchor="start" x="-97" y="285.2" font-family="Times New Roman,serif" font-size="14.00">set_practica</text>
</g>
<!-- ProfesionalGuiaController -->
<g id="node11" class="node"><title>ProfesionalGuiaController</title>
<path fill="none" stroke="black" d="M306,293.5C306,293.5 444,293.5 444,293.5 450,293.5 456,287.5 456,281.5 456,281.5 456,62.5 456,62.5 456,56.5 450,50.5 444,50.5 444,50.5 306,50.5 306,50.5 300,50.5 294,56.5 294,62.5 294,62.5 294,281.5 294,281.5 294,287.5 300,293.5 306,293.5"/>
<text text-anchor="middle" x="375" y="65.7" font-family="Times New Roman,serif" font-size="14.00">ProfesionalGuiaController</text>
<polyline fill="none" stroke="black" points="294,73.5 456,73.5 "/>
<text text-anchor="start" x="302" y="88.7" font-family="Times New Roman,serif" font-size="14.00">crear</text>
<text text-anchor="start" x="302" y="103.7" font-family="Times New Roman,serif" font-size="14.00">crear2</text>
<text text-anchor="start" x="302" y="118.7" font-family="Times New Roman,serif" font-size="14.00">editar</text>
<text text-anchor="start" x="302" y="133.7" font-family="Times New Roman,serif" font-size="14.00">eliminar</text>
<text text-anchor="start" x="302" y="148.7" font-family="Times New Roman,serif" font-size="14.00">index</text>
<text text-anchor="start" x="302" y="163.7" font-family="Times New Roman,serif" font-size="14.00">mostrar</text>
<text text-anchor="start" x="302" y="178.7" font-family="Times New Roman,serif" font-size="14.00">nuevo</text>
<text text-anchor="start" x="302" y="193.7" font-family="Times New Roman,serif" font-size="14.00">nuevo2</text>
<text text-anchor="start" x="302" y="208.7" font-family="Times New Roman,serif" font-size="14.00">update</text>
<polyline fill="none" stroke="black" points="294,216.5 456,216.5 "/>
<polyline fill="none" stroke="black" points="294,240.5 456,240.5 "/>
<text text-anchor="start" x="302" y="255.7" font-family="Times New Roman,serif" font-size="14.00">_layout</text>
<text text-anchor="start" x="302" y="270.7" font-family="Times New Roman,serif" font-size="14.00">profesionalGuia_params</text>
<text text-anchor="start" x="302" y="285.7" font-family="Times New Roman,serif" font-size="14.00">set_profesional_guia</text>
</g>
<!-- RegistrationsController -->
<g id="node12" class="node"><title>RegistrationsController</title>
<path fill="none" stroke="black" d="M474,-1C474,-1 604,-1 604,-1 610,-1 616,-7 616,-13 616,-13 616,-113 616,-113 616,-119 610,-125 604,-125 604,-125 474,-125 474,-125 468,-125 462,-119 462,-113 462,-113 462,-13 462,-13 462,-7 468,-1 474,-1"/>
<text text-anchor="middle" x="539" y="-109.8" font-family="Times New Roman,serif" font-size="14.00">RegistrationsController</text>
<polyline fill="none" stroke="black" points="462,-102 616,-102 "/>
<polyline fill="none" stroke="black" points="462,-78 616,-78 "/>
<polyline fill="none" stroke="black" points="462,-54 616,-54 "/>
<text text-anchor="start" x="470" y="-38.8" font-family="Times New Roman,serif" font-size="14.00">_layout</text>
<text text-anchor="start" x="470" y="-23.8" font-family="Times New Roman,serif" font-size="14.00">account_update_params</text>
<text text-anchor="start" x="470" y="-8.8" font-family="Times New Roman,serif" font-size="14.00">sign_up_params</text>
</g>
<!-- RolesController -->
<g id="node13" class="node"><title>RolesController</title>
<path fill="none" stroke="black" d="M-428.5,-0.5C-428.5,-0.5 -347.5,-0.5 -347.5,-0.5 -341.5,-0.5 -335.5,-6.5 -335.5,-12.5 -335.5,-12.5 -335.5,-201.5 -335.5,-201.5 -335.5,-207.5 -341.5,-213.5 -347.5,-213.5 -347.5,-213.5 -428.5,-213.5 -428.5,-213.5 -434.5,-213.5 -440.5,-207.5 -440.5,-201.5 -440.5,-201.5 -440.5,-12.5 -440.5,-12.5 -440.5,-6.5 -434.5,-0.5 -428.5,-0.5"/>
<text text-anchor="middle" x="-388" y="-198.3" font-family="Times New Roman,serif" font-size="14.00">RolesController</text>
<polyline fill="none" stroke="black" points="-440.5,-190.5 -335.5,-190.5 "/>
<text text-anchor="start" x="-432.5" y="-175.3" font-family="Times New Roman,serif" font-size="14.00">create</text>
<text text-anchor="start" x="-432.5" y="-160.3" font-family="Times New Roman,serif" font-size="14.00">destroy</text>
<text text-anchor="start" x="-432.5" y="-145.3" font-family="Times New Roman,serif" font-size="14.00">edit</text>
<text text-anchor="start" x="-432.5" y="-130.3" font-family="Times New Roman,serif" font-size="14.00">index</text>
<text text-anchor="start" x="-432.5" y="-115.3" font-family="Times New Roman,serif" font-size="14.00">new</text>
<text text-anchor="start" x="-432.5" y="-100.3" font-family="Times New Roman,serif" font-size="14.00">show</text>
<text text-anchor="start" x="-432.5" y="-85.3" font-family="Times New Roman,serif" font-size="14.00">update</text>
<polyline fill="none" stroke="black" points="-440.5,-77.5 -335.5,-77.5 "/>
<polyline fill="none" stroke="black" points="-440.5,-53.5 -335.5,-53.5 "/>
<text text-anchor="start" x="-432.5" y="-38.3" font-family="Times New Roman,serif" font-size="14.00">_layout</text>
<text text-anchor="start" x="-432.5" y="-23.3" font-family="Times New Roman,serif" font-size="14.00">role_params</text>
<text text-anchor="start" x="-432.5" y="-8.3" font-family="Times New Roman,serif" font-size="14.00">set_role</text>
</g>
<!-- RolsController -->
<g id="node14" class="node"><title>RolsController</title>
<path fill="none" stroke="black" d="M-428.5,251.5C-428.5,251.5 -353.5,251.5 -353.5,251.5 -347.5,251.5 -341.5,245.5 -341.5,239.5 -341.5,239.5 -341.5,50.5 -341.5,50.5 -341.5,44.5 -347.5,38.5 -353.5,38.5 -353.5,38.5 -428.5,38.5 -428.5,38.5 -434.5,38.5 -440.5,44.5 -440.5,50.5 -440.5,50.5 -440.5,239.5 -440.5,239.5 -440.5,245.5 -434.5,251.5 -428.5,251.5"/>
<text text-anchor="middle" x="-391" y="53.7" font-family="Times New Roman,serif" font-size="14.00">RolsController</text>
<polyline fill="none" stroke="black" points="-440.5,61.5 -341.5,61.5 "/>
<text text-anchor="start" x="-432.5" y="76.7" font-family="Times New Roman,serif" font-size="14.00">create</text>
<text text-anchor="start" x="-432.5" y="91.7" font-family="Times New Roman,serif" font-size="14.00">destroy</text>
<text text-anchor="start" x="-432.5" y="106.7" font-family="Times New Roman,serif" font-size="14.00">edit</text>
<text text-anchor="start" x="-432.5" y="121.7" font-family="Times New Roman,serif" font-size="14.00">index</text>
<text text-anchor="start" x="-432.5" y="136.7" font-family="Times New Roman,serif" font-size="14.00">new</text>
<text text-anchor="start" x="-432.5" y="151.7" font-family="Times New Roman,serif" font-size="14.00">show</text>
<text text-anchor="start" x="-432.5" y="166.7" font-family="Times New Roman,serif" font-size="14.00">update</text>
<polyline fill="none" stroke="black" points="-440.5,174.5 -341.5,174.5 "/>
<polyline fill="none" stroke="black" points="-440.5,198.5 -341.5,198.5 "/>
<text text-anchor="start" x="-432.5" y="213.7" font-family="Times New Roman,serif" font-size="14.00">_layout</text>
<text text-anchor="start" x="-432.5" y="228.7" font-family="Times New Roman,serif" font-size="14.00">rol_params</text>
<text text-anchor="start" x="-432.5" y="243.7" font-family="Times New Roman,serif" font-size="14.00">set_rol</text>
</g>
<!-- SeguimientosController -->
<g id="node15" class="node"><title>SeguimientosController</title>
<path fill="none" stroke="black" d="M-281.5,-295C-281.5,-295 -158.5,-295 -158.5,-295 -152.5,-295 -146.5,-301 -146.5,-307 -146.5,-307 -146.5,-511 -146.5,-511 -146.5,-517 -152.5,-523 -158.5,-523 -158.5,-523 -281.5,-523 -281.5,-523 -287.5,-523 -293.5,-517 -293.5,-511 -293.5,-511 -293.5,-307 -293.5,-307 -293.5,-301 -287.5,-295 -281.5,-295"/>
<text text-anchor="middle" x="-220" y="-507.8" font-family="Times New Roman,serif" font-size="14.00">SeguimientosController</text>
<polyline fill="none" stroke="black" points="-293.5,-500 -146.5,-500 "/>
<text text-anchor="start" x="-285.5" y="-484.8" font-family="Times New Roman,serif" font-size="14.00">crear</text>
<text text-anchor="start" x="-285.5" y="-469.8" font-family="Times New Roman,serif" font-size="14.00">crear2</text>
<text text-anchor="start" x="-285.5" y="-454.8" font-family="Times New Roman,serif" font-size="14.00">editar</text>
<text text-anchor="start" x="-285.5" y="-439.8" font-family="Times New Roman,serif" font-size="14.00">eliminar</text>
<text text-anchor="start" x="-285.5" y="-424.8" font-family="Times New Roman,serif" font-size="14.00">index</text>
<text text-anchor="start" x="-285.5" y="-409.8" font-family="Times New Roman,serif" font-size="14.00">mostrar</text>
<text text-anchor="start" x="-285.5" y="-394.8" font-family="Times New Roman,serif" font-size="14.00">nuevo</text>
<text text-anchor="start" x="-285.5" y="-379.8" font-family="Times New Roman,serif" font-size="14.00">update</text>
<polyline fill="none" stroke="black" points="-293.5,-372 -146.5,-372 "/>
<polyline fill="none" stroke="black" points="-293.5,-348 -146.5,-348 "/>
<text text-anchor="start" x="-285.5" y="-332.8" font-family="Times New Roman,serif" font-size="14.00">_layout</text>
<text text-anchor="start" x="-285.5" y="-317.8" font-family="Times New Roman,serif" font-size="14.00">seguimiento_params</text>
<text text-anchor="start" x="-285.5" y="-302.8" font-family="Times New Roman,serif" font-size="14.00">set_seguimiento</text>
</g>
<!-- SemestresController -->
<g id="node16" class="node"><title>SemestresController</title>
<path fill="none" stroke="black" d="M138,377.5C138,377.5 244,377.5 244,377.5 250,377.5 256,371.5 256,365.5 256,365.5 256,176.5 256,176.5 256,170.5 250,164.5 244,164.5 244,164.5 138,164.5 138,164.5 132,164.5 126,170.5 126,176.5 126,176.5 126,365.5 126,365.5 126,371.5 132,377.5 138,377.5"/>
<text text-anchor="middle" x="191" y="179.7" font-family="Times New Roman,serif" font-size="14.00">SemestresController</text>
<polyline fill="none" stroke="black" points="126,187.5 256,187.5 "/>
<text text-anchor="start" x="134" y="202.7" font-family="Times New Roman,serif" font-size="14.00">create</text>
<text text-anchor="start" x="134" y="217.7" font-family="Times New Roman,serif" font-size="14.00">destroy</text>
<text text-anchor="start" x="134" y="232.7" font-family="Times New Roman,serif" font-size="14.00">edit</text>
<text text-anchor="start" x="134" y="247.7" font-family="Times New Roman,serif" font-size="14.00">index</text>
<text text-anchor="start" x="134" y="262.7" font-family="Times New Roman,serif" font-size="14.00">new</text>
<text text-anchor="start" x="134" y="277.7" font-family="Times New Roman,serif" font-size="14.00">show</text>
<text text-anchor="start" x="134" y="292.7" font-family="Times New Roman,serif" font-size="14.00">update</text>
<polyline fill="none" stroke="black" points="126,300.5 256,300.5 "/>
<polyline fill="none" stroke="black" points="126,324.5 256,324.5 "/>
<text text-anchor="start" x="134" y="339.7" font-family="Times New Roman,serif" font-size="14.00">_layout</text>
<text text-anchor="start" x="134" y="354.7" font-family="Times New Roman,serif" font-size="14.00">semestre_params</text>
<text text-anchor="start" x="134" y="369.7" font-family="Times New Roman,serif" font-size="14.00">set_semestre</text>
</g>
<!-- UserController -->
<g id="node17" class="node"><title>UserController</title>
<path fill="none" stroke="black" d="M-428.5,-441.5C-428.5,-441.5 -353.5,-441.5 -353.5,-441.5 -347.5,-441.5 -341.5,-447.5 -341.5,-453.5 -341.5,-453.5 -341.5,-642.5 -341.5,-642.5 -341.5,-648.5 -347.5,-654.5 -353.5,-654.5 -353.5,-654.5 -428.5,-654.5 -428.5,-654.5 -434.5,-654.5 -440.5,-648.5 -440.5,-642.5 -440.5,-642.5 -440.5,-453.5 -440.5,-453.5 -440.5,-447.5 -434.5,-441.5 -428.5,-441.5"/>
<text text-anchor="middle" x="-391" y="-639.3" font-family="Times New Roman,serif" font-size="14.00">UserController</text>
<polyline fill="none" stroke="black" points="-440.5,-631.5 -341.5,-631.5 "/>
<text text-anchor="start" x="-432.5" y="-616.3" font-family="Times New Roman,serif" font-size="14.00">create</text>
<text text-anchor="start" x="-432.5" y="-601.3" font-family="Times New Roman,serif" font-size="14.00">destroy</text>
<text text-anchor="start" x="-432.5" y="-586.3" font-family="Times New Roman,serif" font-size="14.00">edit</text>
<text text-anchor="start" x="-432.5" y="-571.3" font-family="Times New Roman,serif" font-size="14.00">index</text>
<text text-anchor="start" x="-432.5" y="-556.3" font-family="Times New Roman,serif" font-size="14.00">new</text>
<text text-anchor="start" x="-432.5" y="-541.3" font-family="Times New Roman,serif" font-size="14.00">show</text>
<text text-anchor="start" x="-432.5" y="-526.3" font-family="Times New Roman,serif" font-size="14.00">update</text>
<polyline fill="none" stroke="black" points="-440.5,-518.5 -341.5,-518.5 "/>
<polyline fill="none" stroke="black" points="-440.5,-494.5 -341.5,-494.5 "/>
<text text-anchor="start" x="-432.5" y="-479.3" font-family="Times New Roman,serif" font-size="14.00">_layout</text>
<text text-anchor="start" x="-432.5" y="-464.3" font-family="Times New Roman,serif" font-size="14.00">set_user</text>
<text text-anchor="start" x="-432.5" y="-449.3" font-family="Times New Roman,serif" font-size="14.00">user_params</text>
</g>
<!-- WelcomeController -->
<g id="node18" class="node"><title>WelcomeController</title>
<path fill="none" stroke="black" d="M-240,419.5C-240,419.5 -138,419.5 -138,419.5 -132,419.5 -126,413.5 -126,407.5 -126,407.5 -126,338.5 -126,338.5 -126,332.5 -132,326.5 -138,326.5 -138,326.5 -240,326.5 -240,326.5 -246,326.5 -252,332.5 -252,338.5 -252,338.5 -252,407.5 -252,407.5 -252,413.5 -246,419.5 -240,419.5"/>
<text text-anchor="middle" x="-189" y="341.7" font-family="Times New Roman,serif" font-size="14.00">WelcomeController</text>
<polyline fill="none" stroke="black" points="-252,349.5 -126,349.5 "/>
<text text-anchor="start" x="-244" y="364.7" font-family="Times New Roman,serif" font-size="14.00">index</text>
<polyline fill="none" stroke="black" points="-252,372.5 -126,372.5 "/>
<polyline fill="none" stroke="black" points="-252,396.5 -126,396.5 "/>
<text text-anchor="start" x="-244" y="411.7" font-family="Times New Roman,serif" font-size="14.00">_layout</text>
</g>
</g>
</svg>
