<?xml version="1.0" encoding="UTF-8" standalone="no"?>
<!DOCTYPE svg PUBLIC "-//W3C//DTD SVG 1.1//EN"
 "http://www.w3.org/Graphics/SVG/1.1/DTD/svg11.dtd">
<!-- Generated by graphviz version 2.38.0 (20140413.2041)
 -->
<!-- Title: models_diagram Pages: 1 -->
<svg width="916pt" height="392pt"
 viewBox="0.00 0.00 915.70 392.00" xmlns="http://www.w3.org/2000/svg" xmlns:xlink="http://www.w3.org/1999/xlink">
<g id="graph0" class="graph" transform="scale(1 1) rotate(0) translate(4 388)">
<title>models_diagram</title>
<polygon fill="none" stroke="none" points="-4,4 -4,-388 911.696,-388 911.696,4 -4,4"/>
<!-- _diagram_info -->
<g id="node1" class="node"><title>_diagram_info</title>
<text text-anchor="start" x="8" y="-369.6" font-family="Times New Roman,serif" font-size="13.00">Models diagram</text>
<text text-anchor="start" x="8" y="-355.6" font-family="Times New Roman,serif" font-size="13.00">Date: Oct 01 2018 &#45; 13:45</text>
<text text-anchor="start" x="8" y="-341.6" font-family="Times New Roman,serif" font-size="13.00">Migration version: 20171122184018</text>
<text text-anchor="start" x="8" y="-327.6" font-family="Times New Roman,serif" font-size="13.00">Generated by RailRoady 1.5.3</text>
<text text-anchor="start" x="8" y="-313.6" font-family="Times New Roman,serif" font-size="13.00">http://railroady.prestonlee.com</text>
</g>
<!-- Ability -->
<g id="node2" class="node"><title>Ability</title>
<polygon fill="none" stroke="black" points="281.5,-363 227.5,-363 227.5,-327 281.5,-327 281.5,-363"/>
<text text-anchor="middle" x="254.5" y="-341.3" font-family="Times New Roman,serif" font-size="14.00">Ability</text>
</g>
<!-- Alumno -->
<g id="node3" class="node"><title>Alumno</title>
<ellipse fill="none" stroke="black" cx="339.5" cy="-345" rx="39.7935" ry="18"/>
<text text-anchor="middle" x="339.5" y="-341.3" font-family="Times New Roman,serif" font-size="14.00">Alumno</text>
</g>
<!-- Practica -->
<g id="node12" class="node"><title>Practica</title>
<ellipse fill="none" stroke="black" cx="296.5" cy="-251" rx="40.0939" ry="18"/>
<text text-anchor="middle" x="296.5" y="-247.3" font-family="Times New Roman,serif" font-size="14.00">Practica</text>
</g>
<!-- Alumno&#45;&gt;Practica -->
<g id="edge1" class="edge"><title>Alumno&#45;&gt;Practica</title>
<path fill="none" stroke="#ddfbcf" d="M322.352,-320.148C315.145,-306.822 307.372,-290.238 302.01,-276.766"/>
<ellipse fill="none" stroke="#ddfbcf" cx="324.543" cy="-324.062" rx="4.00002" ry="4.00002"/>
<ellipse fill="#ddfbcf" stroke="#ddfbcf" cx="300.574" cy="-272.982" rx="4.00001" ry="4.00001"/>
</g>
<!-- User -->
<g id="node17" class="node"><title>User</title>
<ellipse fill="none" stroke="black" cx="382.5" cy="-251" rx="27.8951" ry="18"/>
<text text-anchor="middle" x="382.5" y="-247.3" font-family="Times New Roman,serif" font-size="14.00">User</text>
</g>
<!-- Alumno&#45;&gt;User -->
<g id="edge2" class="edge"><title>Alumno&#45;&gt;User</title>
<path fill="none" stroke="#b77e5b" d="M345.094,-319.023C350.643,-305.114 358.733,-287.939 366.11,-274.458"/>
<ellipse fill="none" stroke="#b77e5b" cx="343.598" cy="-322.957" rx="4.00001" ry="4.00001"/>
<ellipse fill="#b77e5b" stroke="#b77e5b" cx="368.142" cy="-270.872" rx="4.00002" ry="4.00002"/>
</g>
<!-- ApplicationRecord -->
<g id="node4" class="node"><title>ApplicationRecord</title>
<ellipse fill="none" stroke="black" cx="477.5" cy="-345" rx="79.8859" ry="18"/>
<text text-anchor="middle" x="477.5" y="-341.3" font-family="Times New Roman,serif" font-size="14.00">ApplicationRecord</text>
</g>
<!-- Area -->
<g id="node5" class="node"><title>Area</title>
<ellipse fill="none" stroke="black" cx="34.5" cy="-164" rx="27.8951" ry="18"/>
<text text-anchor="middle" x="34.5" y="-160.3" font-family="Times New Roman,serif" font-size="14.00">Area</text>
</g>
<!-- Area&#45;&gt;Practica -->
<g id="edge3" class="edge"><title>Area&#45;&gt;Practica</title>
<path fill="none" stroke="#1238e0" d="M66.38,-175.921C71.1512,-178.003 75.9572,-180.117 80.5,-182 119.473,-198.151 129.241,-202.393 169.5,-215 197.311,-223.709 228.8,-231.916 253.554,-238.19"/>
<ellipse fill="none" stroke="#1238e0" cx="62.6262" cy="-174.3" rx="4.00002" ry="4.00002"/>
<polygon fill="#1238e0" stroke="#1238e0" points="253.68,-238.222 262.273,-245.033 258.527,-239.446 263.375,-240.67 263.375,-240.67 263.375,-240.67 258.527,-239.446 264.477,-236.307 253.68,-238.222 253.68,-238.222"/>
</g>
<!-- Auto -->
<g id="node6" class="node"><title>Auto</title>
<ellipse fill="none" stroke="black" cx="604.5" cy="-345" rx="28.6953" ry="18"/>
<text text-anchor="middle" x="604.5" y="-341.3" font-family="Times New Roman,serif" font-size="14.00">Auto</text>
</g>
<!-- Codigo -->
<g id="node7" class="node"><title>Codigo</title>
<ellipse fill="none" stroke="black" cx="689.5" cy="-345" rx="38.1938" ry="18"/>
<text text-anchor="middle" x="689.5" y="-341.3" font-family="Times New Roman,serif" font-size="14.00">Codigo</text>
</g>
<!-- Convenio -->
<g id="node8" class="node"><title>Convenio</title>
<ellipse fill="none" stroke="black" cx="126.5" cy="-164" rx="46.2923" ry="18"/>
<text text-anchor="middle" x="126.5" y="-160.3" font-family="Times New Roman,serif" font-size="14.00">Convenio</text>
</g>
<!-- Empresa -->
<g id="node9" class="node"><title>Empresa</title>
<ellipse fill="none" stroke="black" cx="209.5" cy="-91" rx="42.4939" ry="18"/>
<text text-anchor="middle" x="209.5" y="-87.3" font-family="Times New Roman,serif" font-size="14.00">Empresa</text>
</g>
<!-- Convenio&#45;&gt;Empresa -->
<g id="edge5" class="edge"><title>Convenio&#45;&gt;Empresa</title>
<path fill="none" stroke="#0f6471" d="M151.034,-142.014C161.855,-132.756 174.536,-121.909 185.317,-112.687"/>
<ellipse fill="none" stroke="#0f6471" cx="147.96" cy="-144.643" rx="4.00002" ry="4.00002"/>
<ellipse fill="#0f6471" stroke="#0f6471" cx="188.377" cy="-110.069" rx="4.00002" ry="4.00002"/>
</g>
<!-- Convenio&#45;&gt;Practica -->
<g id="edge4" class="edge"><title>Convenio&#45;&gt;Practica</title>
<path fill="none" stroke="#aac258" d="M154.857,-185.345C166.804,-195.417 181.053,-207.081 195.5,-215 213.599,-224.921 234.939,-232.524 253.397,-238.068"/>
<ellipse fill="none" stroke="#aac258" cx="151.526" cy="-182.53" rx="4.00002" ry="4.00002"/>
<polygon fill="#aac258" stroke="#aac258" points="253.429,-238.077 261.782,-245.182 258.231,-239.469 263.034,-240.86 263.034,-240.86 263.034,-240.86 258.231,-239.469 264.286,-236.538 253.429,-238.077 253.429,-238.077"/>
</g>
<!-- Empresa&#45;&gt;Practica -->
<g id="edge6" class="edge"><title>Empresa&#45;&gt;Practica</title>
<path fill="none" stroke="#d081f3" d="M221.63,-116.551C227.547,-135.294 234.987,-161.327 246.5,-182 255.421,-198.018 268.554,-213.634 279.301,-225.854"/>
<ellipse fill="none" stroke="#d081f3" cx="220.331" cy="-112.554" rx="4.00001" ry="4.00001"/>
<polygon fill="#d081f3" stroke="#d081f3" points="279.32,-225.876 282.58,-236.346 282.635,-229.619 285.95,-233.363 285.95,-233.363 285.95,-233.363 282.635,-229.619 289.319,-230.38 279.32,-225.876 279.32,-225.876"/>
</g>
<!-- Conveio -->
<g id="node18" class="node"><title>Conveio</title>
<ellipse fill="none" stroke="black" cx="209.5" cy="-18" rx="41.6928" ry="18"/>
<text text-anchor="middle" x="209.5" y="-14.3" font-family="Times New Roman,serif" font-size="14.00">Conveio</text>
</g>
<!-- Empresa&#45;&gt;Conveio -->
<g id="edge7" class="edge"><title>Empresa&#45;&gt;Conveio</title>
<path fill="none" stroke="#c35e4f" d="M209.5,-64.791C209.5,-58.832 209.5,-52.4496 209.5,-46.3988"/>
<ellipse fill="none" stroke="#c35e4f" cx="209.5" cy="-68.8129" rx="4" ry="4"/>
<polygon fill="#c35e4f" stroke="#c35e4f" points="209.5,-46.0288 214,-36.0288 209.5,-41.0288 209.5,-36.0288 209.5,-36.0288 209.5,-36.0288 209.5,-41.0288 205,-36.0289 209.5,-46.0288 209.5,-46.0288"/>
</g>
<!-- Evaluacion -->
<g id="node10" class="node"><title>Evaluacion</title>
<ellipse fill="none" stroke="black" cx="296.5" cy="-164" rx="50.0912" ry="18"/>
<text text-anchor="middle" x="296.5" y="-160.3" font-family="Times New Roman,serif" font-size="14.00">Evaluacion</text>
</g>
<!-- Evaluacion&#45;&gt;Practica -->
<g id="edge8" class="edge"><title>Evaluacion&#45;&gt;Practica</title>
<path fill="none" stroke="#8bfdb1" d="M302.74,-190.417C303.422,-201.254 303.42,-213.869 302.733,-224.694"/>
<ellipse fill="none" stroke="#8bfdb1" cx="302.382" cy="-186.161" rx="4" ry="4"/>
<ellipse fill="#8bfdb1" stroke="#8bfdb1" cx="302.385" cy="-228.813" rx="4" ry="4"/>
</g>
<!-- Herramienta -->
<g id="node11" class="node"><title>Herramienta</title>
<ellipse fill="none" stroke="black" cx="418.5" cy="-164" rx="53.8905" ry="18"/>
<text text-anchor="middle" x="418.5" y="-160.3" font-family="Times New Roman,serif" font-size="14.00">Herramienta</text>
</g>
<!-- Herramienta&#45;&gt;Practica -->
<g id="edge9" class="edge"><title>Herramienta&#45;&gt;Practica</title>
<path fill="none" stroke="#8748cf" d="M415.845,-190.229C413.751,-199.053 410.043,-208.394 403.5,-215 384.505,-234.175 371.142,-224.575 345.5,-233 342.038,-234.137 338.446,-235.34 334.852,-236.559"/>
<ellipse fill="none" stroke="#8748cf" cx="416.598" cy="-186.294" rx="4.00001" ry="4.00001"/>
<ellipse fill="#8748cf" stroke="#8748cf" cx="330.814" cy="-237.939" rx="4.00001" ry="4.00001"/>
</g>
<!-- Practica&#45;&gt;Alumno -->
<g id="edge10" class="edge"><title>Practica&#45;&gt;Alumno</title>
<path fill="none" stroke="#f8f850" d="M313.374,-275.346C320.646,-288.737 328.535,-305.54 333.965,-319.171"/>
<ellipse fill="none" stroke="#f8f850" cx="311.376" cy="-271.788" rx="4.00002" ry="4.00002"/>
<ellipse fill="#f8f850" stroke="#f8f850" cx="335.403" cy="-322.956" rx="4.00001" ry="4.00001"/>
</g>
<!-- Practica&#45;&gt;Area -->
<g id="edge16" class="edge"><title>Practica&#45;&gt;Area</title>
<path fill="none" stroke="#b44601" d="M251.886,-241.533C222.843,-235.002 184.57,-225.356 151.5,-215 111.241,-202.393 101.473,-198.151 62.5,-182 61.8143,-181.716 61.1226,-181.426 60.4271,-181.133"/>
<ellipse fill="none" stroke="#b44601" cx="255.916" cy="-242.426" rx="4.00001" ry="4.00001"/>
<ellipse fill="#b44601" stroke="#b44601" cx="56.6018" cy="-179.46" rx="4.00002" ry="4.00002"/>
</g>
<!-- Practica&#45;&gt;Convenio -->
<g id="edge12" class="edge"><title>Practica&#45;&gt;Convenio</title>
<path fill="none" stroke="#7b6b97" d="M251.414,-241.972C228.229,-236.312 200.295,-227.494 177.5,-215 164.108,-207.66 150.887,-197.101 141.044,-187.576"/>
<ellipse fill="none" stroke="#7b6b97" cx="255.506" cy="-242.931" rx="4.00001" ry="4.00001"/>
<ellipse fill="#7b6b97" stroke="#7b6b97" cx="138.186" cy="-184.669" rx="4.00002" ry="4.00002"/>
</g>
<!-- Practica&#45;&gt;Empresa -->
<g id="edge13" class="edge"><title>Practica&#45;&gt;Empresa</title>
<path fill="none" stroke="#5eddab" d="M267.894,-230.476C254.069,-217.721 238.59,-200.117 228.5,-182 217.108,-161.544 209.703,-135.839 206.959,-117.143"/>
<ellipse fill="none" stroke="#5eddab" cx="271.111" cy="-233.327" rx="4.00002" ry="4.00002"/>
<ellipse fill="#5eddab" stroke="#5eddab" cx="206.488" cy="-113.063" rx="4.00001" ry="4.00001"/>
</g>
<!-- Practica&#45;&gt;Evaluacion -->
<g id="edge15" class="edge"><title>Practica&#45;&gt;Evaluacion</title>
<path fill="none" stroke="#767b8a" d="M290.267,-224.694C289.58,-213.869 289.578,-201.254 290.26,-190.417"/>
<ellipse fill="none" stroke="#767b8a" cx="290.615" cy="-228.813" rx="4" ry="4"/>
<ellipse fill="#767b8a" stroke="#767b8a" cx="290.618" cy="-186.161" rx="4" ry="4"/>
</g>
<!-- Practica&#45;&gt;Herramienta -->
<g id="edge17" class="edge"><title>Practica&#45;&gt;Herramienta</title>
<path fill="none" stroke="#cc7533" d="M311.001,-226.534C317.587,-217.329 326.029,-207.256 335.5,-200 346.295,-191.73 359.332,-185.041 371.843,-179.811"/>
<ellipse fill="none" stroke="#cc7533" cx="308.599" cy="-230.042" rx="4.00002" ry="4.00002"/>
<ellipse fill="#cc7533" stroke="#cc7533" cx="375.824" cy="-178.224" rx="4.00001" ry="4.00001"/>
<text text-anchor="middle" x="367.5" y="-203.8" font-family="Times New Roman,serif" font-size="14.00">herramienta</text>
</g>
<!-- ProfesionalGuia -->
<g id="node13" class="node"><title>ProfesionalGuia</title>
<ellipse fill="none" stroke="black" cx="559.5" cy="-164" rx="68.7879" ry="18"/>
<text text-anchor="middle" x="559.5" y="-160.3" font-family="Times New Roman,serif" font-size="14.00">ProfesionalGuia</text>
</g>
<!-- Practica&#45;&gt;ProfesionalGuia -->
<g id="edge11" class="edge"><title>Practica&#45;&gt;ProfesionalGuia</title>
<path fill="none" stroke="#51e2d9" d="M334.322,-236.452C338.082,-235.233 341.855,-234.061 345.5,-233 378.829,-223.299 388.87,-226.841 421.5,-215 435.513,-209.915 437.704,-205.647 451.5,-200 469.217,-192.748 489.036,-185.961 506.812,-180.33"/>
<ellipse fill="none" stroke="#51e2d9" cx="330.462" cy="-237.735" rx="4.00001" ry="4.00001"/>
<ellipse fill="#51e2d9" stroke="#51e2d9" cx="511.002" cy="-179.02" rx="4.00001" ry="4.00001"/>
<text text-anchor="middle" x="498" y="-203.8" font-family="Times New Roman,serif" font-size="14.00">profesional_guia</text>
</g>
<!-- Seguimiento -->
<g id="node15" class="node"><title>Seguimiento</title>
<ellipse fill="none" stroke="black" cx="701.5" cy="-164" rx="55.4913" ry="18"/>
<text text-anchor="middle" x="701.5" y="-160.3" font-family="Times New Roman,serif" font-size="14.00">Seguimiento</text>
</g>
<!-- Practica&#45;&gt;Seguimiento -->
<g id="edge14" class="edge"><title>Practica&#45;&gt;Seguimiento</title>
<path fill="none" stroke="#1fdd5e" d="M329.608,-234.646C331.918,-234.035 334.229,-233.48 336.5,-233 431.62,-212.908 459.52,-235.741 554.5,-215 590.266,-207.19 629.349,-192.399 658.353,-180.923"/>
<ellipse fill="none" stroke="#1fdd5e" cx="325.656" cy="-235.794" rx="4.00001" ry="4.00001"/>
<ellipse fill="#1fdd5e" stroke="#1fdd5e" cx="662.16" cy="-179.41" rx="4.00001" ry="4.00001"/>
</g>
<!-- ProfesionalGuia&#45;&gt;Practica -->
<g id="edge18" class="edge"><title>ProfesionalGuia&#45;&gt;Practica</title>
<path fill="none" stroke="#4a78de" d="M557.73,-190.213C555.766,-199.37 551.917,-208.944 544.5,-215 510.107,-243.085 388.908,-223.654 345.5,-233 341.531,-233.855 337.439,-234.936 333.392,-236.137"/>
<ellipse fill="none" stroke="#4a78de" cx="558.414" cy="-185.983" rx="4.00001" ry="4.00001"/>
<ellipse fill="#4a78de" stroke="#4a78de" cx="329.521" cy="-237.361" rx="4.00001" ry="4.00001"/>
</g>
<!-- Role -->
<g id="node14" class="node"><title>Role</title>
<ellipse fill="none" stroke="black" cx="773.5" cy="-345" rx="27.8951" ry="18"/>
<text text-anchor="middle" x="773.5" y="-341.3" font-family="Times New Roman,serif" font-size="14.00">Role</text>
</g>
<!-- Seguimiento&#45;&gt;Practica -->
<g id="edge19" class="edge"><title>Seguimiento&#45;&gt;Practica</title>
<path fill="none" stroke="#59a582" d="M667.859,-183.249C642.174,-194.332 605.891,-207.708 572.5,-215 477.52,-235.741 449.62,-212.908 354.5,-233 348.807,-234.203 342.865,-235.881 337.019,-237.719"/>
<ellipse fill="none" stroke="#59a582" cx="671.814" cy="-181.506" rx="4.00002" ry="4.00002"/>
<ellipse fill="#59a582" stroke="#59a582" cx="332.94" cy="-239.052" rx="4.00001" ry="4.00001"/>
</g>
<!-- Semestre -->
<g id="node16" class="node"><title>Semestre</title>
<ellipse fill="none" stroke="black" cx="863.5" cy="-345" rx="44.393" ry="18"/>
<text text-anchor="middle" x="863.5" y="-341.3" font-family="Times New Roman,serif" font-size="14.00">Semestre</text>
</g>
<!-- User&#45;&gt;Alumno -->
<g id="edge20" class="edge"><title>User&#45;&gt;Alumno</title>
<path fill="none" stroke="#f6c288" d="M377.05,-276.614C371.868,-289.655 364.408,-305.645 357.386,-318.776"/>
<ellipse fill="none" stroke="#f6c288" cx="378.543" cy="-272.669" rx="4.00001" ry="4.00001"/>
<polygon fill="#f6c288" stroke="#f6c288" points="357.365,-318.814 348.571,-325.364 354.934,-323.183 352.503,-327.552 352.503,-327.552 352.503,-327.552 354.934,-323.183 356.436,-329.74 357.365,-318.814 357.365,-318.814"/>
</g>
</g>
</svg>
