<?xml version="1.0" encoding="UTF-8" standalone="no"?>
<!DOCTYPE svg PUBLIC "-//W3C//DTD SVG 1.1//EN"
 "http://www.w3.org/Graphics/SVG/1.1/DTD/svg11.dtd">
<!-- Generated by graphviz version 2.38.0 (20140413.2041)
 -->
<!-- Title: models_diagram Pages: 1 -->
<svg width="2215pt" height="1024pt"
 viewBox="0.00 0.00 2215.00 1024.00" xmlns="http://www.w3.org/2000/svg" xmlns:xlink="http://www.w3.org/1999/xlink">
<g id="graph0" class="graph" transform="scale(1 1) rotate(0) translate(4 1020)">
<title>models_diagram</title>
<polygon fill="none" stroke="none" points="-4,4 -4,-1020 2211,-1020 2211,4 -4,4"/>
<!-- _diagram_info -->
<g id="node1" class="node"><title>_diagram_info</title>
<text text-anchor="start" x="441" y="-942.1" font-family="Times New Roman,serif" font-size="13.00">Models diagram</text>
<text text-anchor="start" x="441" y="-928.1" font-family="Times New Roman,serif" font-size="13.00">Date: Oct 01 2018 &#45; 13:45</text>
<text text-anchor="start" x="441" y="-914.1" font-family="Times New Roman,serif" font-size="13.00">Migration version: 20171122184018</text>
<text text-anchor="start" x="441" y="-900.1" font-family="Times New Roman,serif" font-size="13.00">Generated by RailRoady 1.5.3</text>
<text text-anchor="start" x="441" y="-886.1" font-family="Times New Roman,serif" font-size="13.00">http://railroady.prestonlee.com</text>
</g>
<!-- Ability -->
<g id="node2" class="node"><title>Ability</title>
<polygon fill="none" stroke="black" points="660.5,-894.5 660.5,-940.5 714.5,-940.5 714.5,-894.5 660.5,-894.5"/>
<text text-anchor="middle" x="687.5" y="-925.3" font-family="Times New Roman,serif" font-size="14.00">Ability</text>
<polyline fill="none" stroke="black" points="660.5,-917.5 714.5,-917.5 "/>
<text text-anchor="middle" x="687.5" y="-902.3" font-family="Times New Roman,serif" font-size="14.00"> </text>
</g>
<!-- Alumno -->
<g id="node3" class="node"><title>Alumno</title>
<path fill="none" stroke="black" d="M745,-819.5C745,-819.5 966,-819.5 966,-819.5 972,-819.5 978,-825.5 978,-831.5 978,-831.5 978,-1003.5 978,-1003.5 978,-1009.5 972,-1015.5 966,-1015.5 966,-1015.5 745,-1015.5 745,-1015.5 739,-1015.5 733,-1009.5 733,-1003.5 733,-1003.5 733,-831.5 733,-831.5 733,-825.5 739,-819.5 745,-819.5"/>
<text text-anchor="middle" x="855.5" y="-1000.3" font-family="Times New Roman,serif" font-size="14.00">Alumno</text>
<polyline fill="none" stroke="black" points="733,-992.5 978,-992.5 "/>
<text text-anchor="start" x="741" y="-977.3" font-family="Times New Roman,serif" font-size="14.00">id :integer</text>
<text text-anchor="start" x="741" y="-962.3" font-family="Times New Roman,serif" font-size="14.00">nombre :character varying</text>
<text text-anchor="start" x="741" y="-947.3" font-family="Times New Roman,serif" font-size="14.00">apellido :character varying</text>
<text text-anchor="start" x="741" y="-932.3" font-family="Times New Roman,serif" font-size="14.00">email :character varying</text>
<text text-anchor="start" x="741" y="-917.3" font-family="Times New Roman,serif" font-size="14.00">rut :character varying</text>
<text text-anchor="start" x="741" y="-902.3" font-family="Times New Roman,serif" font-size="14.00">codigo_carrera :integer</text>
<text text-anchor="start" x="741" y="-887.3" font-family="Times New Roman,serif" font-size="14.00">semestre :integer</text>
<text text-anchor="start" x="741" y="-872.3" font-family="Times New Roman,serif" font-size="14.00">ano :integer</text>
<text text-anchor="start" x="741" y="-857.3" font-family="Times New Roman,serif" font-size="14.00">user_id :integer</text>
<text text-anchor="start" x="741" y="-842.3" font-family="Times New Roman,serif" font-size="14.00">created_at :timestamp without time zone</text>
<text text-anchor="start" x="741" y="-827.3" font-family="Times New Roman,serif" font-size="14.00">updated_at :timestamp without time zone</text>
</g>
<!-- Practica -->
<g id="node12" class="node"><title>Practica</title>
<path fill="none" stroke="black" d="M595,-533C595,-533 816,-533 816,-533 822,-533 828,-539 828,-545 828,-545 828,-762 828,-762 828,-768 822,-774 816,-774 816,-774 595,-774 595,-774 589,-774 583,-768 583,-762 583,-762 583,-545 583,-545 583,-539 589,-533 595,-533"/>
<text text-anchor="middle" x="705.5" y="-758.8" font-family="Times New Roman,serif" font-size="14.00">Practica</text>
<polyline fill="none" stroke="black" points="583,-751 828,-751 "/>
<text text-anchor="start" x="591" y="-735.8" font-family="Times New Roman,serif" font-size="14.00">id :integer</text>
<text text-anchor="start" x="591" y="-720.8" font-family="Times New Roman,serif" font-size="14.00">fecha_inicio :date</text>
<text text-anchor="start" x="591" y="-705.8" font-family="Times New Roman,serif" font-size="14.00">fecha_termino :date</text>
<text text-anchor="start" x="591" y="-690.8" font-family="Times New Roman,serif" font-size="14.00">descripcion_p :text</text>
<text text-anchor="start" x="591" y="-675.8" font-family="Times New Roman,serif" font-size="14.00">alumno_id :integer</text>
<text text-anchor="start" x="591" y="-660.8" font-family="Times New Roman,serif" font-size="14.00">profesional_guia_id :integer</text>
<text text-anchor="start" x="591" y="-645.8" font-family="Times New Roman,serif" font-size="14.00">herramienta_id :integer</text>
<text text-anchor="start" x="591" y="-630.8" font-family="Times New Roman,serif" font-size="14.00">convenio_id :integer</text>
<text text-anchor="start" x="591" y="-615.8" font-family="Times New Roman,serif" font-size="14.00">empresa_id :integer</text>
<text text-anchor="start" x="591" y="-600.8" font-family="Times New Roman,serif" font-size="14.00">seguimiento_id :integer</text>
<text text-anchor="start" x="591" y="-585.8" font-family="Times New Roman,serif" font-size="14.00">evaluacion_id :integer</text>
<text text-anchor="start" x="591" y="-570.8" font-family="Times New Roman,serif" font-size="14.00">area_id :integer</text>
<text text-anchor="start" x="591" y="-555.8" font-family="Times New Roman,serif" font-size="14.00">created_at :timestamp without time zone</text>
<text text-anchor="start" x="591" y="-540.8" font-family="Times New Roman,serif" font-size="14.00">updated_at :timestamp without time zone</text>
</g>
<!-- Alumno&#45;&gt;Practica -->
<g id="edge1" class="edge"><title>Alumno&#45;&gt;Practica</title>
<path fill="none" stroke="#219f74" d="M789.265,-812.377C783.327,-802.176 777.315,-791.748 771.38,-781.355"/>
<ellipse fill="none" stroke="#219f74" cx="791.297" cy="-815.858" rx="4.00002" ry="4.00002"/>
<ellipse fill="#219f74" stroke="#219f74" cx="769.266" cy="-777.644" rx="4.00002" ry="4.00002"/>
</g>
<!-- User -->
<g id="node17" class="node"><title>User</title>
<path fill="none" stroke="black" d="M858.5,-525.5C858.5,-525.5 1152.5,-525.5 1152.5,-525.5 1158.5,-525.5 1164.5,-531.5 1164.5,-537.5 1164.5,-537.5 1164.5,-769.5 1164.5,-769.5 1164.5,-775.5 1158.5,-781.5 1152.5,-781.5 1152.5,-781.5 858.5,-781.5 858.5,-781.5 852.5,-781.5 846.5,-775.5 846.5,-769.5 846.5,-769.5 846.5,-537.5 846.5,-537.5 846.5,-531.5 852.5,-525.5 858.5,-525.5"/>
<text text-anchor="middle" x="1005.5" y="-766.3" font-family="Times New Roman,serif" font-size="14.00">User</text>
<polyline fill="none" stroke="black" points="846.5,-758.5 1164.5,-758.5 "/>
<text text-anchor="start" x="854.5" y="-743.3" font-family="Times New Roman,serif" font-size="14.00">id :integer</text>
<text text-anchor="start" x="854.5" y="-728.3" font-family="Times New Roman,serif" font-size="14.00">nombre :character varying</text>
<text text-anchor="start" x="854.5" y="-713.3" font-family="Times New Roman,serif" font-size="14.00">email :character varying</text>
<text text-anchor="start" x="854.5" y="-698.3" font-family="Times New Roman,serif" font-size="14.00">encrypted_password :character varying</text>
<text text-anchor="start" x="854.5" y="-683.3" font-family="Times New Roman,serif" font-size="14.00">reset_password_token :character varying</text>
<text text-anchor="start" x="854.5" y="-668.3" font-family="Times New Roman,serif" font-size="14.00">reset_password_sent_at :timestamp without time zone</text>
<text text-anchor="start" x="854.5" y="-653.3" font-family="Times New Roman,serif" font-size="14.00">remember_created_at :timestamp without time zone</text>
<text text-anchor="start" x="854.5" y="-638.3" font-family="Times New Roman,serif" font-size="14.00">sign_in_count :integer</text>
<text text-anchor="start" x="854.5" y="-623.3" font-family="Times New Roman,serif" font-size="14.00">current_sign_in_at :timestamp without time zone</text>
<text text-anchor="start" x="854.5" y="-608.3" font-family="Times New Roman,serif" font-size="14.00">last_sign_in_at :timestamp without time zone</text>
<text text-anchor="start" x="854.5" y="-593.3" font-family="Times New Roman,serif" font-size="14.00">current_sign_in_ip :inet</text>
<text text-anchor="start" x="854.5" y="-578.3" font-family="Times New Roman,serif" font-size="14.00">last_sign_in_ip :inet</text>
<text text-anchor="start" x="854.5" y="-563.3" font-family="Times New Roman,serif" font-size="14.00">created_at :timestamp without time zone</text>
<text text-anchor="start" x="854.5" y="-548.3" font-family="Times New Roman,serif" font-size="14.00">updated_at :timestamp without time zone</text>
<text text-anchor="start" x="854.5" y="-533.3" font-family="Times New Roman,serif" font-size="14.00">role_id :integer</text>
</g>
<!-- Alumno&#45;&gt;User -->
<g id="edge2" class="edge"><title>Alumno&#45;&gt;User</title>
<path fill="none" stroke="#5989a7" d="M908.646,-812.101C912.94,-804.473 917.337,-796.721 921.776,-788.952"/>
<ellipse fill="none" stroke="#5989a7" cx="906.554" cy="-815.826" rx="4.00002" ry="4.00002"/>
<ellipse fill="#5989a7" stroke="#5989a7" cx="923.874" cy="-785.287" rx="4.00002" ry="4.00002"/>
</g>
<!-- ApplicationRecord -->
<g id="node4" class="node"><title>ApplicationRecord</title>
<ellipse fill="none" stroke="black" cx="1075.5" cy="-917.5" rx="79.8859" ry="18"/>
<text text-anchor="middle" x="1075.5" y="-913.8" font-family="Times New Roman,serif" font-size="14.00">ApplicationRecord</text>
</g>
<!-- Area -->
<g id="node5" class="node"><title>Area</title>
<path fill="none" stroke="black" d="M12,-300C12,-300 233,-300 233,-300 239,-300 245,-306 245,-312 245,-312 245,-379 245,-379 245,-385 239,-391 233,-391 233,-391 12,-391 12,-391 6,-391 0,-385 0,-379 0,-379 0,-312 0,-312 0,-306 6,-300 12,-300"/>
<text text-anchor="middle" x="122.5" y="-375.8" font-family="Times New Roman,serif" font-size="14.00">Area</text>
<polyline fill="none" stroke="black" points="0,-368 245,-368 "/>
<text text-anchor="start" x="8" y="-352.8" font-family="Times New Roman,serif" font-size="14.00">id :integer</text>
<text text-anchor="start" x="8" y="-337.8" font-family="Times New Roman,serif" font-size="14.00">nombre :character varying</text>
<text text-anchor="start" x="8" y="-322.8" font-family="Times New Roman,serif" font-size="14.00">created_at :timestamp without time zone</text>
<text text-anchor="start" x="8" y="-307.8" font-family="Times New Roman,serif" font-size="14.00">updated_at :timestamp without time zone</text>
</g>
<!-- Area&#45;&gt;Practica -->
<g id="edge3" class="edge"><title>Area&#45;&gt;Practica</title>
<path fill="none" stroke="#ecec3e" d="M173.779,-397.321C198.606,-422.934 229.932,-452.941 262.5,-474 359.325,-536.607 481.585,-583.24 573.162,-613.112"/>
<ellipse fill="none" stroke="#ecec3e" cx="170.71" cy="-394.134" rx="4.00002" ry="4.00002"/>
<polygon fill="#ecec3e" stroke="#ecec3e" points="573.252,-613.141 581.381,-620.502 578.009,-614.681 582.766,-616.22 582.766,-616.22 582.766,-616.22 578.009,-614.681 584.152,-611.939 573.252,-613.141 573.252,-613.141"/>
</g>
<!-- Auto -->
<g id="node6" class="node"><title>Auto</title>
<path fill="none" stroke="black" d="M1185,-849.5C1185,-849.5 1406,-849.5 1406,-849.5 1412,-849.5 1418,-855.5 1418,-861.5 1418,-861.5 1418,-973.5 1418,-973.5 1418,-979.5 1412,-985.5 1406,-985.5 1406,-985.5 1185,-985.5 1185,-985.5 1179,-985.5 1173,-979.5 1173,-973.5 1173,-973.5 1173,-861.5 1173,-861.5 1173,-855.5 1179,-849.5 1185,-849.5"/>
<text text-anchor="middle" x="1295.5" y="-970.3" font-family="Times New Roman,serif" font-size="14.00">Auto</text>
<polyline fill="none" stroke="black" points="1173,-962.5 1418,-962.5 "/>
<text text-anchor="start" x="1181" y="-947.3" font-family="Times New Roman,serif" font-size="14.00">id :integer</text>
<text text-anchor="start" x="1181" y="-932.3" font-family="Times New Roman,serif" font-size="14.00">nombre :character varying</text>
<text text-anchor="start" x="1181" y="-917.3" font-family="Times New Roman,serif" font-size="14.00">modelo :character varying</text>
<text text-anchor="start" x="1181" y="-902.3" font-family="Times New Roman,serif" font-size="14.00">cantidad_ruedas :integer</text>
<text text-anchor="start" x="1181" y="-887.3" font-family="Times New Roman,serif" font-size="14.00">descripcion :text</text>
<text text-anchor="start" x="1181" y="-872.3" font-family="Times New Roman,serif" font-size="14.00">created_at :timestamp without time zone</text>
<text text-anchor="start" x="1181" y="-857.3" font-family="Times New Roman,serif" font-size="14.00">updated_at :timestamp without time zone</text>
</g>
<!-- Codigo -->
<g id="node7" class="node"><title>Codigo</title>
<path fill="none" stroke="black" d="M1448,-872C1448,-872 1669,-872 1669,-872 1675,-872 1681,-878 1681,-884 1681,-884 1681,-951 1681,-951 1681,-957 1675,-963 1669,-963 1669,-963 1448,-963 1448,-963 1442,-963 1436,-957 1436,-951 1436,-951 1436,-884 1436,-884 1436,-878 1442,-872 1448,-872"/>
<text text-anchor="middle" x="1558.5" y="-947.8" font-family="Times New Roman,serif" font-size="14.00">Codigo</text>
<polyline fill="none" stroke="black" points="1436,-940 1681,-940 "/>
<text text-anchor="start" x="1444" y="-924.8" font-family="Times New Roman,serif" font-size="14.00">id :integer</text>
<text text-anchor="start" x="1444" y="-909.8" font-family="Times New Roman,serif" font-size="14.00">codigo_carrera :integer</text>
<text text-anchor="start" x="1444" y="-894.8" font-family="Times New Roman,serif" font-size="14.00">created_at :timestamp without time zone</text>
<text text-anchor="start" x="1444" y="-879.8" font-family="Times New Roman,serif" font-size="14.00">updated_at :timestamp without time zone</text>
</g>
<!-- Convenio -->
<g id="node8" class="node"><title>Convenio</title>
<path fill="none" stroke="black" d="M275,-270C275,-270 496,-270 496,-270 502,-270 508,-276 508,-282 508,-282 508,-409 508,-409 508,-415 502,-421 496,-421 496,-421 275,-421 275,-421 269,-421 263,-415 263,-409 263,-409 263,-282 263,-282 263,-276 269,-270 275,-270"/>
<text text-anchor="middle" x="385.5" y="-405.8" font-family="Times New Roman,serif" font-size="14.00">Convenio</text>
<polyline fill="none" stroke="black" points="263,-398 508,-398 "/>
<text text-anchor="start" x="271" y="-382.8" font-family="Times New Roman,serif" font-size="14.00">id :integer</text>
<text text-anchor="start" x="271" y="-367.8" font-family="Times New Roman,serif" font-size="14.00">nombre :character varying</text>
<text text-anchor="start" x="271" y="-352.8" font-family="Times New Roman,serif" font-size="14.00">fecha_inicio :date</text>
<text text-anchor="start" x="271" y="-337.8" font-family="Times New Roman,serif" font-size="14.00">fecha_termino :date</text>
<text text-anchor="start" x="271" y="-322.8" font-family="Times New Roman,serif" font-size="14.00">descripcion :text</text>
<text text-anchor="start" x="271" y="-307.8" font-family="Times New Roman,serif" font-size="14.00">empresa_id :integer</text>
<text text-anchor="start" x="271" y="-292.8" font-family="Times New Roman,serif" font-size="14.00">created_at :timestamp without time zone</text>
<text text-anchor="start" x="271" y="-277.8" font-family="Times New Roman,serif" font-size="14.00">updated_at :timestamp without time zone</text>
</g>
<!-- Empresa -->
<g id="node9" class="node"><title>Empresa</title>
<path fill="none" stroke="black" d="M435,-73.5C435,-73.5 656,-73.5 656,-73.5 662,-73.5 668,-79.5 668,-85.5 668,-85.5 668,-167.5 668,-167.5 668,-173.5 662,-179.5 656,-179.5 656,-179.5 435,-179.5 435,-179.5 429,-179.5 423,-173.5 423,-167.5 423,-167.5 423,-85.5 423,-85.5 423,-79.5 429,-73.5 435,-73.5"/>
<text text-anchor="middle" x="545.5" y="-164.3" font-family="Times New Roman,serif" font-size="14.00">Empresa</text>
<polyline fill="none" stroke="black" points="423,-156.5 668,-156.5 "/>
<text text-anchor="start" x="431" y="-141.3" font-family="Times New Roman,serif" font-size="14.00">id :integer</text>
<text text-anchor="start" x="431" y="-126.3" font-family="Times New Roman,serif" font-size="14.00">rut_empresa :character varying</text>
<text text-anchor="start" x="431" y="-111.3" font-family="Times New Roman,serif" font-size="14.00">nombre_empresa :character varying</text>
<text text-anchor="start" x="431" y="-96.3" font-family="Times New Roman,serif" font-size="14.00">created_at :timestamp without time zone</text>
<text text-anchor="start" x="431" y="-81.3" font-family="Times New Roman,serif" font-size="14.00">updated_at :timestamp without time zone</text>
</g>
<!-- Convenio&#45;&gt;Empresa -->
<g id="edge5" class="edge"><title>Convenio&#45;&gt;Empresa</title>
<path fill="none" stroke="#6a7d92" d="M445.476,-263.157C464.3,-237.627 484.705,-209.954 502.145,-186.3"/>
<ellipse fill="none" stroke="#6a7d92" cx="442.937" cy="-266.601" rx="4.00002" ry="4.00002"/>
<ellipse fill="#6a7d92" stroke="#6a7d92" cx="504.608" cy="-182.96" rx="4.00002" ry="4.00002"/>
</g>
<!-- Convenio&#45;&gt;Practica -->
<g id="edge4" class="edge"><title>Convenio&#45;&gt;Practica</title>
<path fill="none" stroke="#677a52" d="M457.833,-427.354C480.462,-453.722 506.128,-482.496 531.5,-507 545.174,-520.206 559.971,-533.45 574.965,-546.276"/>
<ellipse fill="none" stroke="#677a52" cx="455.051" cy="-424.102" rx="4.00002" ry="4.00002"/>
<polygon fill="#677a52" stroke="#677a52" points="575.196,-546.472 579.908,-556.374 579.008,-549.707 582.82,-552.943 582.82,-552.943 582.82,-552.943 579.008,-549.707 585.732,-549.512 575.196,-546.472 575.196,-546.472"/>
</g>
<!-- Empresa&#45;&gt;Practica -->
<g id="edge6" class="edge"><title>Empresa&#45;&gt;Practica</title>
<path fill="none" stroke="#ccdf14" d="M546.997,-188.016C545.967,-258.929 546.821,-378.832 582.5,-474 588.893,-491.052 597.423,-507.891 607.026,-524.013"/>
<ellipse fill="none" stroke="#ccdf14" cx="547.067" cy="-183.615" rx="4" ry="4"/>
<polygon fill="#ccdf14" stroke="#ccdf14" points="607.242,-524.366 608.628,-535.244 609.854,-528.63 612.465,-532.894 612.465,-532.894 612.465,-532.894 609.854,-528.63 616.303,-530.543 607.242,-524.366 607.242,-524.366"/>
</g>
<!-- Conveio -->
<g id="node18" class="node"><title>Conveio</title>
<ellipse fill="none" stroke="black" cx="545.5" cy="-18" rx="41.6928" ry="18"/>
<text text-anchor="middle" x="545.5" y="-14.3" font-family="Times New Roman,serif" font-size="14.00">Conveio</text>
</g>
<!-- Empresa&#45;&gt;Conveio -->
<g id="edge7" class="edge"><title>Empresa&#45;&gt;Conveio</title>
<path fill="none" stroke="#1fc6c2" d="M545.5,-65.2768C545.5,-58.7616 545.5,-52.3881 545.5,-46.5556"/>
<ellipse fill="none" stroke="#1fc6c2" cx="545.5" cy="-69.4979" rx="4" ry="4"/>
<polygon fill="#1fc6c2" stroke="#1fc6c2" points="545.5,-46.1111 550,-36.111 545.5,-41.1111 545.5,-36.1111 545.5,-36.1111 545.5,-36.1111 545.5,-41.1111 541,-36.1111 545.5,-46.1111 545.5,-46.1111"/>
</g>
<!-- Evaluacion -->
<g id="node10" class="node"><title>Evaluacion</title>
<path fill="none" stroke="black" d="M595,-217.5C595,-217.5 816,-217.5 816,-217.5 822,-217.5 828,-223.5 828,-229.5 828,-229.5 828,-461.5 828,-461.5 828,-467.5 822,-473.5 816,-473.5 816,-473.5 595,-473.5 595,-473.5 589,-473.5 583,-467.5 583,-461.5 583,-461.5 583,-229.5 583,-229.5 583,-223.5 589,-217.5 595,-217.5"/>
<text text-anchor="middle" x="705.5" y="-458.3" font-family="Times New Roman,serif" font-size="14.00">Evaluacion</text>
<polyline fill="none" stroke="black" points="583,-450.5 828,-450.5 "/>
<text text-anchor="start" x="591" y="-435.3" font-family="Times New Roman,serif" font-size="14.00">id :integer</text>
<text text-anchor="start" x="591" y="-420.3" font-family="Times New Roman,serif" font-size="14.00">pregunta_1 :integer</text>
<text text-anchor="start" x="591" y="-405.3" font-family="Times New Roman,serif" font-size="14.00">pregunta_2 :integer</text>
<text text-anchor="start" x="591" y="-390.3" font-family="Times New Roman,serif" font-size="14.00">pregunta_3 :integer</text>
<text text-anchor="start" x="591" y="-375.3" font-family="Times New Roman,serif" font-size="14.00">pregunta_4 :integer</text>
<text text-anchor="start" x="591" y="-360.3" font-family="Times New Roman,serif" font-size="14.00">pregunta_5 :integer</text>
<text text-anchor="start" x="591" y="-345.3" font-family="Times New Roman,serif" font-size="14.00">pregunta_6 :integer</text>
<text text-anchor="start" x="591" y="-330.3" font-family="Times New Roman,serif" font-size="14.00">pregunta_7 :integer</text>
<text text-anchor="start" x="591" y="-315.3" font-family="Times New Roman,serif" font-size="14.00">pregunta_8 :integer</text>
<text text-anchor="start" x="591" y="-300.3" font-family="Times New Roman,serif" font-size="14.00">observacion :text</text>
<text text-anchor="start" x="591" y="-285.3" font-family="Times New Roman,serif" font-size="14.00">fecha_evaluacion :date</text>
<text text-anchor="start" x="591" y="-270.3" font-family="Times New Roman,serif" font-size="14.00">nota :double precision</text>
<text text-anchor="start" x="591" y="-255.3" font-family="Times New Roman,serif" font-size="14.00">nota_informe_practica :double precision</text>
<text text-anchor="start" x="591" y="-240.3" font-family="Times New Roman,serif" font-size="14.00">created_at :timestamp without time zone</text>
<text text-anchor="start" x="591" y="-225.3" font-family="Times New Roman,serif" font-size="14.00">updated_at :timestamp without time zone</text>
</g>
<!-- Evaluacion&#45;&gt;Practica -->
<g id="edge8" class="edge"><title>Evaluacion&#45;&gt;Practica</title>
<path fill="none" stroke="#517a37" d="M712.21,-481.945C712.275,-496.136 712.261,-510.531 712.168,-524.633"/>
<ellipse fill="none" stroke="#517a37" cx="712.186" cy="-477.617" rx="4" ry="4"/>
<ellipse fill="#517a37" stroke="#517a37" cx="712.136" cy="-528.878" rx="4" ry="4"/>
</g>
<!-- Herramienta -->
<g id="node11" class="node"><title>Herramienta</title>
<path fill="none" stroke="black" d="M858,-300C858,-300 1079,-300 1079,-300 1085,-300 1091,-306 1091,-312 1091,-312 1091,-379 1091,-379 1091,-385 1085,-391 1079,-391 1079,-391 858,-391 858,-391 852,-391 846,-385 846,-379 846,-379 846,-312 846,-312 846,-306 852,-300 858,-300"/>
<text text-anchor="middle" x="968.5" y="-375.8" font-family="Times New Roman,serif" font-size="14.00">Herramienta</text>
<polyline fill="none" stroke="black" points="846,-368 1091,-368 "/>
<text text-anchor="start" x="854" y="-352.8" font-family="Times New Roman,serif" font-size="14.00">id :integer</text>
<text text-anchor="start" x="854" y="-337.8" font-family="Times New Roman,serif" font-size="14.00">nombre :character varying</text>
<text text-anchor="start" x="854" y="-322.8" font-family="Times New Roman,serif" font-size="14.00">created_at :timestamp without time zone</text>
<text text-anchor="start" x="854" y="-307.8" font-family="Times New Roman,serif" font-size="14.00">updated_at :timestamp without time zone</text>
</g>
<!-- Herramienta&#45;&gt;Practica -->
<g id="edge9" class="edge"><title>Herramienta&#45;&gt;Practica</title>
<path fill="none" stroke="#673be1" d="M952.908,-399.064C940.136,-433.918 918.827,-478.345 886.5,-507 869.138,-522.39 857.156,-512.675 837.5,-525 835.91,-525.997 834.323,-527.016 832.74,-528.054"/>
<ellipse fill="none" stroke="#673be1" cx="954.319" cy="-395.099" rx="4.00001" ry="4.00001"/>
<ellipse fill="#673be1" stroke="#673be1" cx="829.14" cy="-530.491" rx="4.00002" ry="4.00002"/>
</g>
<!-- Practica&#45;&gt;Alumno -->
<g id="edge10" class="edge"><title>Practica&#45;&gt;Alumno</title>
<path fill="none" stroke="#f9d4c0" d="M784.836,-781.289C790.746,-791.585 796.621,-801.917 802.313,-812.028"/>
<ellipse fill="none" stroke="#f9d4c0" cx="782.735" cy="-777.636" rx="4.00002" ry="4.00002"/>
<ellipse fill="#f9d4c0" stroke="#f9d4c0" cx="804.446" cy="-815.826" rx="4.00002" ry="4.00002"/>
</g>
<!-- Practica&#45;&gt;Area -->
<g id="edge16" class="edge"><title>Practica&#45;&gt;Area</title>
<path fill="none" stroke="#b48fb3" d="M574.977,-618.434C478.725,-588.917 347.281,-540.459 244.5,-474 211.932,-452.941 180.606,-422.934 157.737,-397.321"/>
<ellipse fill="none" stroke="#b48fb3" cx="578.892" cy="-619.626" rx="4.00001" ry="4.00001"/>
<ellipse fill="#b48fb3" stroke="#b48fb3" cx="155.044" cy="-394.257" rx="4.00002" ry="4.00002"/>
</g>
<!-- Practica&#45;&gt;Convenio -->
<g id="edge12" class="edge"><title>Practica&#45;&gt;Convenio</title>
<path fill="none" stroke="#9f1af2" d="M576.147,-562.13C554.554,-544.545 532.898,-525.734 513.5,-507 488.128,-482.496 462.462,-453.722 440.791,-427.354"/>
<ellipse fill="none" stroke="#9f1af2" cx="579.427" cy="-564.785" rx="4.00002" ry="4.00002"/>
<ellipse fill="#9f1af2" stroke="#9f1af2" cx="438.186" cy="-424.162" rx="4.00002" ry="4.00002"/>
</g>
<!-- Practica&#45;&gt;Empresa -->
<g id="edge13" class="edge"><title>Practica&#45;&gt;Empresa</title>
<path fill="none" stroke="#06971c" d="M590.224,-525.802C580.058,-509.138 571.13,-491.684 564.5,-474 528.749,-378.639 527.963,-258.441 534.159,-187.584"/>
<ellipse fill="none" stroke="#06971c" cx="592.535" cy="-529.501" rx="4.00002" ry="4.00002"/>
<ellipse fill="#06971c" stroke="#06971c" cx="534.532" cy="-183.598" rx="4" ry="4"/>
</g>
<!-- Practica&#45;&gt;Evaluacion -->
<g id="edge15" class="edge"><title>Practica&#45;&gt;Evaluacion</title>
<path fill="none" stroke="#96f0d6" d="M698.832,-524.633C698.739,-510.531 698.725,-496.136 698.79,-481.945"/>
<ellipse fill="none" stroke="#96f0d6" cx="698.864" cy="-528.878" rx="4" ry="4"/>
<ellipse fill="#96f0d6" stroke="#96f0d6" cx="698.814" cy="-477.617" rx="4" ry="4"/>
</g>
<!-- Practica&#45;&gt;Herramienta -->
<g id="edge17" class="edge"><title>Practica&#45;&gt;Herramienta</title>
<path fill="none" stroke="#d014da" d="M790.9,-526.042C799.912,-514.292 809.191,-502.766 818.5,-492 826.108,-483.201 829.11,-482.057 837.5,-474 863.774,-448.771 892.82,-420.536 916.872,-397.062"/>
<ellipse fill="none" stroke="#d014da" cx="788.344" cy="-529.405" rx="4.00002" ry="4.00002"/>
<ellipse fill="#d014da" stroke="#d014da" cx="920.012" cy="-393.995" rx="4.00002" ry="4.00002"/>
<text text-anchor="middle" x="850.5" y="-495.8" font-family="Times New Roman,serif" font-size="14.00">herramienta</text>
</g>
<!-- ProfesionalGuia -->
<g id="node13" class="node"><title>ProfesionalGuia</title>
<path fill="none" stroke="black" d="M1121,-262.5C1121,-262.5 1342,-262.5 1342,-262.5 1348,-262.5 1354,-268.5 1354,-274.5 1354,-274.5 1354,-416.5 1354,-416.5 1354,-422.5 1348,-428.5 1342,-428.5 1342,-428.5 1121,-428.5 1121,-428.5 1115,-428.5 1109,-422.5 1109,-416.5 1109,-416.5 1109,-274.5 1109,-274.5 1109,-268.5 1115,-262.5 1121,-262.5"/>
<text text-anchor="middle" x="1231.5" y="-413.3" font-family="Times New Roman,serif" font-size="14.00">ProfesionalGuia</text>
<polyline fill="none" stroke="black" points="1109,-405.5 1354,-405.5 "/>
<text text-anchor="start" x="1117" y="-390.3" font-family="Times New Roman,serif" font-size="14.00">id :integer</text>
<text text-anchor="start" x="1117" y="-375.3" font-family="Times New Roman,serif" font-size="14.00">rut :character varying</text>
<text text-anchor="start" x="1117" y="-360.3" font-family="Times New Roman,serif" font-size="14.00">Nombre :character varying</text>
<text text-anchor="start" x="1117" y="-345.3" font-family="Times New Roman,serif" font-size="14.00">Cargo :character varying</text>
<text text-anchor="start" x="1117" y="-330.3" font-family="Times New Roman,serif" font-size="14.00">Email :character varying</text>
<text text-anchor="start" x="1117" y="-315.3" font-family="Times New Roman,serif" font-size="14.00">Direccion :character varying</text>
<text text-anchor="start" x="1117" y="-300.3" font-family="Times New Roman,serif" font-size="14.00">Telefono :character varying</text>
<text text-anchor="start" x="1117" y="-285.3" font-family="Times New Roman,serif" font-size="14.00">created_at :timestamp without time zone</text>
<text text-anchor="start" x="1117" y="-270.3" font-family="Times New Roman,serif" font-size="14.00">updated_at :timestamp without time zone</text>
</g>
<!-- Practica&#45;&gt;ProfesionalGuia -->
<g id="edge11" class="edge"><title>Practica&#45;&gt;ProfesionalGuia</title>
<path fill="none" stroke="#2167ca" d="M830.978,-528.552C833.14,-527.323 835.314,-526.138 837.5,-525 890.311,-497.519 1047.74,-501.581 1100.5,-474 1120.16,-463.72 1138.86,-449.546 1155.64,-434.371"/>
<ellipse fill="none" stroke="#2167ca" cx="827.118" cy="-530.848" rx="4.00002" ry="4.00002"/>
<ellipse fill="#2167ca" stroke="#2167ca" cx="1158.8" cy="-431.454" rx="4.00002" ry="4.00002"/>
<text text-anchor="middle" x="1071" y="-495.8" font-family="Times New Roman,serif" font-size="14.00">profesional_guia</text>
</g>
<!-- Seguimiento -->
<g id="node15" class="node"><title>Seguimiento</title>
<path fill="none" stroke="black" d="M1384,-262.5C1384,-262.5 1605,-262.5 1605,-262.5 1611,-262.5 1617,-268.5 1617,-274.5 1617,-274.5 1617,-416.5 1617,-416.5 1617,-422.5 1611,-428.5 1605,-428.5 1605,-428.5 1384,-428.5 1384,-428.5 1378,-428.5 1372,-422.5 1372,-416.5 1372,-416.5 1372,-274.5 1372,-274.5 1372,-268.5 1378,-262.5 1384,-262.5"/>
<text text-anchor="middle" x="1494.5" y="-413.3" font-family="Times New Roman,serif" font-size="14.00">Seguimiento</text>
<polyline fill="none" stroke="black" points="1372,-405.5 1617,-405.5 "/>
<text text-anchor="start" x="1380" y="-390.3" font-family="Times New Roman,serif" font-size="14.00">id :integer</text>
<text text-anchor="start" x="1380" y="-375.3" font-family="Times New Roman,serif" font-size="14.00">fecha_1 :date</text>
<text text-anchor="start" x="1380" y="-360.3" font-family="Times New Roman,serif" font-size="14.00">comentario_visita_1 :text</text>
<text text-anchor="start" x="1380" y="-345.3" font-family="Times New Roman,serif" font-size="14.00">fecha_2 :date</text>
<text text-anchor="start" x="1380" y="-330.3" font-family="Times New Roman,serif" font-size="14.00">comentario_visita_2 :text</text>
<text text-anchor="start" x="1380" y="-315.3" font-family="Times New Roman,serif" font-size="14.00">fecha_3 :date</text>
<text text-anchor="start" x="1380" y="-300.3" font-family="Times New Roman,serif" font-size="14.00">comentario_visita_3 :text</text>
<text text-anchor="start" x="1380" y="-285.3" font-family="Times New Roman,serif" font-size="14.00">created_at :timestamp without time zone</text>
<text text-anchor="start" x="1380" y="-270.3" font-family="Times New Roman,serif" font-size="14.00">updated_at :timestamp without time zone</text>
</g>
<!-- Practica&#45;&gt;Seguimiento -->
<g id="edge14" class="edge"><title>Practica&#45;&gt;Seguimiento</title>
<path fill="none" stroke="#37f3c1" d="M820.204,-528.922C822.944,-527.533 825.71,-526.223 828.5,-525 891.291,-497.469 1068.31,-514.138 1136.5,-507 1233.96,-496.797 1266.74,-517.596 1354.5,-474 1374.62,-464.003 1393.64,-449.782 1410.81,-434.44"/>
<ellipse fill="none" stroke="#37f3c1" cx="816.543" cy="-530.884" rx="4.00002" ry="4.00002"/>
<ellipse fill="#37f3c1" stroke="#37f3c1" cx="1414.09" cy="-431.439" rx="4.00002" ry="4.00002"/>
</g>
<!-- ProfesionalGuia&#45;&gt;Practica -->
<g id="edge18" class="edge"><title>ProfesionalGuia&#45;&gt;Practica</title>
<path fill="none" stroke="#ded01b" d="M1190.51,-435.608C1173.23,-463.194 1150.34,-490.618 1121.5,-507 1066.52,-538.236 895.353,-499.464 837.5,-525 834.713,-526.23 831.949,-527.547 829.212,-528.941"/>
<ellipse fill="none" stroke="#ded01b" cx="1192.7" cy="-432.014" rx="4.00002" ry="4.00002"/>
<ellipse fill="#ded01b" stroke="#ded01b" cx="825.552" cy="-530.911" rx="4.00002" ry="4.00002"/>
</g>
<!-- Role -->
<g id="node14" class="node"><title>Role</title>
<path fill="none" stroke="black" d="M1711,-864.5C1711,-864.5 1932,-864.5 1932,-864.5 1938,-864.5 1944,-870.5 1944,-876.5 1944,-876.5 1944,-958.5 1944,-958.5 1944,-964.5 1938,-970.5 1932,-970.5 1932,-970.5 1711,-970.5 1711,-970.5 1705,-970.5 1699,-964.5 1699,-958.5 1699,-958.5 1699,-876.5 1699,-876.5 1699,-870.5 1705,-864.5 1711,-864.5"/>
<text text-anchor="middle" x="1821.5" y="-955.3" font-family="Times New Roman,serif" font-size="14.00">Role</text>
<polyline fill="none" stroke="black" points="1699,-947.5 1944,-947.5 "/>
<text text-anchor="start" x="1707" y="-932.3" font-family="Times New Roman,serif" font-size="14.00">id :integer</text>
<text text-anchor="start" x="1707" y="-917.3" font-family="Times New Roman,serif" font-size="14.00">nombre :character varying</text>
<text text-anchor="start" x="1707" y="-902.3" font-family="Times New Roman,serif" font-size="14.00">descripcion :text</text>
<text text-anchor="start" x="1707" y="-887.3" font-family="Times New Roman,serif" font-size="14.00">created_at :timestamp without time zone</text>
<text text-anchor="start" x="1707" y="-872.3" font-family="Times New Roman,serif" font-size="14.00">updated_at :timestamp without time zone</text>
</g>
<!-- Seguimiento&#45;&gt;Practica -->
<g id="edge19" class="edge"><title>Seguimiento&#45;&gt;Practica</title>
<path fill="none" stroke="#717e9b" d="M1428.43,-434.44C1411.64,-449.782 1392.62,-464.003 1372.5,-474 1284.74,-517.596 1251.96,-496.797 1154.5,-507 1086.31,-514.138 909.291,-497.469 846.5,-525 842.677,-526.676 838.9,-528.515 835.172,-530.495"/>
<ellipse fill="none" stroke="#717e9b" cx="1431.59" cy="-431.477" rx="4.00002" ry="4.00002"/>
<ellipse fill="#717e9b" stroke="#717e9b" cx="831.556" cy="-532.518" rx="4.00002" ry="4.00002"/>
</g>
<!-- Semestre -->
<g id="node16" class="node"><title>Semestre</title>
<path fill="none" stroke="black" d="M1974,-872C1974,-872 2195,-872 2195,-872 2201,-872 2207,-878 2207,-884 2207,-884 2207,-951 2207,-951 2207,-957 2201,-963 2195,-963 2195,-963 1974,-963 1974,-963 1968,-963 1962,-957 1962,-951 1962,-951 1962,-884 1962,-884 1962,-878 1968,-872 1974,-872"/>
<text text-anchor="middle" x="2084.5" y="-947.8" font-family="Times New Roman,serif" font-size="14.00">Semestre</text>
<polyline fill="none" stroke="black" points="1962,-940 2207,-940 "/>
<text text-anchor="start" x="1970" y="-924.8" font-family="Times New Roman,serif" font-size="14.00">id :integer</text>
<text text-anchor="start" x="1970" y="-909.8" font-family="Times New Roman,serif" font-size="14.00">numero_semestre :integer</text>
<text text-anchor="start" x="1970" y="-894.8" font-family="Times New Roman,serif" font-size="14.00">created_at :timestamp without time zone</text>
<text text-anchor="start" x="1970" y="-879.8" font-family="Times New Roman,serif" font-size="14.00">updated_at :timestamp without time zone</text>
</g>
<!-- User&#45;&gt;Alumno -->
<g id="edge20" class="edge"><title>User&#45;&gt;Alumno</title>
<path fill="none" stroke="#ee48bd" d="M935.211,-789.058C931.056,-796.299 926.883,-803.525 922.74,-810.648"/>
<ellipse fill="none" stroke="#ee48bd" cx="937.37" cy="-785.287" rx="4.00002" ry="4.00002"/>
<polygon fill="#ee48bd" stroke="#ee48bd" points="922.725,-810.675 913.8,-817.046 920.206,-814.994 917.687,-819.313 917.687,-819.313 917.687,-819.313 920.206,-814.994 921.575,-821.58 922.725,-810.675 922.725,-810.675"/>
</g>
</g>
</svg>
